<?xml version="1.0" encoding="utf-8"?>
<!-- Generator: Adobe Illustrator 28.1.0, SVG Export Plug-In . SVG Version: 6.00 Build 0)  -->
<svg version="1.1" id="Layer_1" xmlns="http://www.w3.org/2000/svg" xmlns:xlink="http://www.w3.org/1999/xlink" x="0px" y="0px"
	 viewBox="0 0 600 600" style="enable-background:new 0 0 600 600;" xml:space="preserve">
<style type="text/css">
	.st0{clip-path:url(#SVGID_00000040551771011622362620000001828522202608395701_);}
	.st1{clip-path:url(#SVGID_00000093882832972443680700000001649938373141374363_);}
	.st2{opacity:0.5;clip-path:url(#SVGID_00000024709002271802222210000003472627209705823376_);}
	
		.st3{clip-path:url(#SVGID_00000136398884653807778790000003871302771603827373_);fill-rule:evenodd;clip-rule:evenodd;fill:#CCCCCC;}
	
		.st4{clip-path:url(#SVGID_00000024709002271802222210000003472627209705823376_);fill-rule:evenodd;clip-rule:evenodd;fill:#D10A0D;}
	.st5{clip-path:url(#SVGID_00000024709002271802222210000003472627209705823376_);fill-rule:evenodd;clip-rule:evenodd;}
	
		.st6{clip-path:url(#SVGID_00000024709002271802222210000003472627209705823376_);fill-rule:evenodd;clip-rule:evenodd;fill:#FFFFFF;}
	
		.st7{clip-path:url(#SVGID_00000024709002271802222210000003472627209705823376_);fill-rule:evenodd;clip-rule:evenodd;fill:#808080;}
	
		.st8{clip-path:url(#SVGID_00000024709002271802222210000003472627209705823376_);fill-rule:evenodd;clip-rule:evenodd;fill:#CCCCCC;}
	
		.st9{clip-path:url(#SVGID_00000004503958786854479470000013617188567523586227_);fill:url(#SVGID_00000104668447637975494530000003890789968045699975_);}
	
		.st10{clip-path:url(#SVGID_00000107558914128209828700000010971781536570787003_);fill-rule:evenodd;clip-rule:evenodd;fill:#FFFFFF;}
	
		.st11{clip-path:url(#SVGID_00000107558914128209828700000010971781536570787003_);fill-rule:evenodd;clip-rule:evenodd;fill:#4D4D4D;}
	
		.st12{clip-path:url(#SVGID_00000107558914128209828700000010971781536570787003_);fill-rule:evenodd;clip-rule:evenodd;fill:#999999;}
	
		.st13{clip-path:url(#SVGID_00000107558914128209828700000010971781536570787003_);fill-rule:evenodd;clip-rule:evenodd;fill:#808080;}
	
		.st14{clip-path:url(#SVGID_00000107558914128209828700000010971781536570787003_);fill-rule:evenodd;clip-rule:evenodd;fill:#B2B2B2;}
	
		.st15{clip-path:url(#SVGID_00000070809533587539777090000008118931316050870971_);fill:url(#SVGID_00000085954442162340495640000016705657254716741764_);}
	
		.st16{clip-path:url(#SVGID_00000044900454808839587190000010230280001308781980_);fill:url(#SVGID_00000047059132010502453530000013695339805331096196_);}
	
		.st17{clip-path:url(#SVGID_00000121966296449376993190000017282521779233852835_);fill:url(#SVGID_00000047760739773507715300000001533499515631038104_);}
	
		.st18{clip-path:url(#SVGID_00000155148150870941953940000009023291820610076075_);fill-rule:evenodd;clip-rule:evenodd;fill:#1A1A1A;}
	
		.st19{clip-path:url(#SVGID_00000155148150870941953940000009023291820610076075_);fill-rule:evenodd;clip-rule:evenodd;fill:#666666;}
	
		.st20{clip-path:url(#SVGID_00000155148150870941953940000009023291820610076075_);fill-rule:evenodd;clip-rule:evenodd;fill:#FFD4D4;}
	
		.st21{clip-path:url(#SVGID_00000034069717522023868420000013392911081890611902_);fill:url(#SVGID_00000138563854764908660860000017063188330259877050_);}
	
		.st22{clip-path:url(#SVGID_00000057123468508185212520000011502913189522473600_);fill:url(#SVGID_00000076600583957483077530000003928801163868619667_);}
	
		.st23{clip-path:url(#SVGID_00000120537224877187121650000000411870727193803452_);fill-rule:evenodd;clip-rule:evenodd;fill:#B2B2B2;}
	
		.st24{clip-path:url(#SVGID_00000120537224877187121650000000411870727193803452_);fill-rule:evenodd;clip-rule:evenodd;fill:#1A1A1A;}
	
		.st25{clip-path:url(#SVGID_00000120537224877187121650000000411870727193803452_);fill-rule:evenodd;clip-rule:evenodd;fill:#FFFFFF;}
	
		.st26{clip-path:url(#SVGID_00000120537224877187121650000000411870727193803452_);fill-rule:evenodd;clip-rule:evenodd;fill:#CCCCCC;}
	
		.st27{clip-path:url(#SVGID_00000120537224877187121650000000411870727193803452_);fill-rule:evenodd;clip-rule:evenodd;fill:#999999;}
	
		.st28{clip-path:url(#SVGID_00000142870459830049927470000010427749031164279949_);fill:url(#SVGID_00000174584409806023109760000008618566831258257329_);}
	
		.st29{clip-path:url(#SVGID_00000174600302509248853500000013137154193337177017_);fill-rule:evenodd;clip-rule:evenodd;fill:#999999;}
	
		.st30{clip-path:url(#SVGID_00000109737046963040314850000004485609730929350079_);fill:url(#SVGID_00000161600727653220954420000016034176441847682993_);}
	
		.st31{clip-path:url(#SVGID_00000047051056631133989210000003831464105606448770_);fill-rule:evenodd;clip-rule:evenodd;fill:#1A1A1A;}
	
		.st32{clip-path:url(#SVGID_00000047051056631133989210000003831464105606448770_);fill-rule:evenodd;clip-rule:evenodd;fill:#E5E5E5;}
	
		.st33{clip-path:url(#SVGID_00000047051056631133989210000003831464105606448770_);fill-rule:evenodd;clip-rule:evenodd;fill:#666666;}
	
		.st34{clip-path:url(#SVGID_00000047051056631133989210000003831464105606448770_);fill-rule:evenodd;clip-rule:evenodd;fill:#910505;}
	
		.st35{clip-path:url(#SVGID_00000047051056631133989210000003831464105606448770_);fill-rule:evenodd;clip-rule:evenodd;fill:#FFFFFF;}
	
		.st36{clip-path:url(#SVGID_00000047051056631133989210000003831464105606448770_);fill-rule:evenodd;clip-rule:evenodd;fill:#4D4D4D;}
	
		.st37{clip-path:url(#SVGID_00000047051056631133989210000003831464105606448770_);fill-rule:evenodd;clip-rule:evenodd;fill:#999999;}
	
		.st38{clip-path:url(#SVGID_00000176755227731327398140000008831202703427827641_);fill:url(#SVGID_00000006689454401184842910000001401737383942623146_);}
	
		.st39{clip-path:url(#SVGID_00000076597881930790329820000011289519128149352579_);fill-rule:evenodd;clip-rule:evenodd;fill:#E5E5E5;}
	
		.st40{clip-path:url(#SVGID_00000076597881930790329820000011289519128149352579_);fill-rule:evenodd;clip-rule:evenodd;fill:#4D4D4D;}
	
		.st41{clip-path:url(#SVGID_00000039116903785401150760000014187133612629136012_);fill:url(#SVGID_00000023969648980702608280000011894423097590150552_);}
	
		.st42{clip-path:url(#SVGID_00000017503815813109282990000009523719981834065841_);fill-rule:evenodd;clip-rule:evenodd;fill:#FFFFFF;}
	
		.st43{clip-path:url(#SVGID_00000017503815813109282990000009523719981834065841_);fill-rule:evenodd;clip-rule:evenodd;fill:#808080;}
	
		.st44{clip-path:url(#SVGID_00000017503815813109282990000009523719981834065841_);fill-rule:evenodd;clip-rule:evenodd;fill:#666666;}
	
		.st45{clip-path:url(#SVGID_00000175293782319732298310000009771349901067456182_);fill:url(#SVGID_00000167366505295412645550000005521722925421813177_);}
	
		.st46{clip-path:url(#SVGID_00000080895055792636940890000016502165305720667553_);fill-rule:evenodd;clip-rule:evenodd;fill:#CCCCCC;}
	
		.st47{clip-path:url(#SVGID_00000080895055792636940890000016502165305720667553_);fill-rule:evenodd;clip-rule:evenodd;fill:#808080;}
	
		.st48{clip-path:url(#SVGID_00000080895055792636940890000016502165305720667553_);fill-rule:evenodd;clip-rule:evenodd;fill:#FFFFFF;}
	.st49{clip-path:url(#SVGID_00000147200124724502073440000011482092344674370437_);}
	.st50{clip-path:url(#SVGID_00000052089175725120046940000013120011181805624708_);}
	
		.st51{clip-path:url(#SVGID_00000137095873597449317940000014030566633888880798_);fill:url(#SVGID_00000155837048163397046810000009819867037354551203_);}
	
		.st52{clip-path:url(#SVGID_00000121268830977877594500000001204589467715112577_);fill-rule:evenodd;clip-rule:evenodd;fill:#1A1A1A;}
	
		.st53{clip-path:url(#SVGID_00000121268830977877594500000001204589467715112577_);fill-rule:evenodd;clip-rule:evenodd;fill:#FFFFFF;}
	.st54{clip-path:url(#SVGID_00000052089175725120046940000013120011181805624708_);fill:#FFFFFF;}
	.st55{clip-path:url(#SVGID_00000052089175725120046940000013120011181805624708_);fill:#1A1A1A;}
	.st56{clip-path:url(#SVGID_00000165923875478733622760000010759479017938301621_);fill:#F2F2F2;}
	.st57{opacity:0.5;clip-path:url(#SVGID_00000085961233941029501970000002098281644087302831_);}
	
		.st58{clip-path:url(#SVGID_00000152947384503582838760000015319138423658723477_);fill-rule:evenodd;clip-rule:evenodd;fill:#CCCCCC;}
	
		.st59{clip-path:url(#SVGID_00000085961233941029501970000002098281644087302831_);fill-rule:evenodd;clip-rule:evenodd;fill:#D10A0D;}
	.st60{clip-path:url(#SVGID_00000085961233941029501970000002098281644087302831_);fill-rule:evenodd;clip-rule:evenodd;}
	
		.st61{clip-path:url(#SVGID_00000085961233941029501970000002098281644087302831_);fill-rule:evenodd;clip-rule:evenodd;fill:#FFFFFF;}
	
		.st62{clip-path:url(#SVGID_00000085961233941029501970000002098281644087302831_);fill-rule:evenodd;clip-rule:evenodd;fill:#808080;}
	
		.st63{clip-path:url(#SVGID_00000085961233941029501970000002098281644087302831_);fill-rule:evenodd;clip-rule:evenodd;fill:#CCCCCC;}
	
		.st64{clip-path:url(#SVGID_00000158746131591080426040000013514108582407822239_);fill:url(#SVGID_00000010302689943905043080000018281445278661863330_);}
	
		.st65{clip-path:url(#SVGID_00000013163182771703578890000006281853761393278370_);fill-rule:evenodd;clip-rule:evenodd;fill:#FFFFFF;}
	
		.st66{clip-path:url(#SVGID_00000013163182771703578890000006281853761393278370_);fill-rule:evenodd;clip-rule:evenodd;fill:#4D4D4D;}
	
		.st67{clip-path:url(#SVGID_00000013163182771703578890000006281853761393278370_);fill-rule:evenodd;clip-rule:evenodd;fill:#999999;}
	
		.st68{clip-path:url(#SVGID_00000013163182771703578890000006281853761393278370_);fill-rule:evenodd;clip-rule:evenodd;fill:#808080;}
	
		.st69{clip-path:url(#SVGID_00000013163182771703578890000006281853761393278370_);fill-rule:evenodd;clip-rule:evenodd;fill:#B2B2B2;}
	
		.st70{clip-path:url(#SVGID_00000054964298552553043010000012008853844829646226_);fill:url(#SVGID_00000143590309611341975090000008516983352903237308_);}
	
		.st71{clip-path:url(#SVGID_00000098910935979123622530000006902175219456631217_);fill:url(#SVGID_00000123438291641569354490000002508268524181577368_);}
	
		.st72{clip-path:url(#SVGID_00000055673380774894788180000000580093373815895469_);fill:url(#SVGID_00000078738056293973075320000007561914378919132833_);}
	
		.st73{clip-path:url(#SVGID_00000103232444634361108220000006101122693119081149_);fill-rule:evenodd;clip-rule:evenodd;fill:#1A1A1A;}
	
		.st74{clip-path:url(#SVGID_00000103232444634361108220000006101122693119081149_);fill-rule:evenodd;clip-rule:evenodd;fill:#666666;}
	
		.st75{clip-path:url(#SVGID_00000103232444634361108220000006101122693119081149_);fill-rule:evenodd;clip-rule:evenodd;fill:#FFD4D4;}
	
		.st76{clip-path:url(#SVGID_00000018231519037586400030000011678380361168732312_);fill:url(#SVGID_00000033360626730494398020000013253330488864471738_);}
	
		.st77{clip-path:url(#SVGID_00000116953490353317180510000002065955832137811866_);fill:url(#SVGID_00000150068975740003327600000006229182652085156011_);}
	
		.st78{clip-path:url(#SVGID_00000074403320746561549460000006040009392324355479_);fill-rule:evenodd;clip-rule:evenodd;fill:#B2B2B2;}
	
		.st79{clip-path:url(#SVGID_00000074403320746561549460000006040009392324355479_);fill-rule:evenodd;clip-rule:evenodd;fill:#1A1A1A;}
	
		.st80{clip-path:url(#SVGID_00000074403320746561549460000006040009392324355479_);fill-rule:evenodd;clip-rule:evenodd;fill:#FFFFFF;}
	
		.st81{clip-path:url(#SVGID_00000074403320746561549460000006040009392324355479_);fill-rule:evenodd;clip-rule:evenodd;fill:#CCCCCC;}
	
		.st82{clip-path:url(#SVGID_00000074403320746561549460000006040009392324355479_);fill-rule:evenodd;clip-rule:evenodd;fill:#999999;}
	
		.st83{clip-path:url(#SVGID_00000167386112576740960780000007295404004567508114_);fill:url(#SVGID_00000061443029448099188240000013552382976035859627_);}
	
		.st84{clip-path:url(#SVGID_00000043443413849931888350000002686883432027361929_);fill-rule:evenodd;clip-rule:evenodd;fill:#999999;}
	
		.st85{clip-path:url(#SVGID_00000044143023946352388560000001182155048955403411_);fill:url(#SVGID_00000031893455557359687660000000944889241692316304_);}
	
		.st86{clip-path:url(#SVGID_00000094579062924246937740000010800175136255610240_);fill-rule:evenodd;clip-rule:evenodd;fill:#1A1A1A;}
	
		.st87{clip-path:url(#SVGID_00000094579062924246937740000010800175136255610240_);fill-rule:evenodd;clip-rule:evenodd;fill:#E5E5E5;}
	
		.st88{clip-path:url(#SVGID_00000094579062924246937740000010800175136255610240_);fill-rule:evenodd;clip-rule:evenodd;fill:#666666;}
	
		.st89{clip-path:url(#SVGID_00000094579062924246937740000010800175136255610240_);fill-rule:evenodd;clip-rule:evenodd;fill:#910505;}
	
		.st90{clip-path:url(#SVGID_00000094579062924246937740000010800175136255610240_);fill-rule:evenodd;clip-rule:evenodd;fill:#FFFFFF;}
	
		.st91{clip-path:url(#SVGID_00000094579062924246937740000010800175136255610240_);fill-rule:evenodd;clip-rule:evenodd;fill:#4D4D4D;}
	
		.st92{clip-path:url(#SVGID_00000094579062924246937740000010800175136255610240_);fill-rule:evenodd;clip-rule:evenodd;fill:#999999;}
	
		.st93{clip-path:url(#SVGID_00000070085488953618195770000013039522974469373369_);fill:url(#SVGID_00000145059841113787564080000003804790906532762765_);}
	
		.st94{clip-path:url(#SVGID_00000056423358498902505590000008946354028230810298_);fill-rule:evenodd;clip-rule:evenodd;fill:#E5E5E5;}
	
		.st95{clip-path:url(#SVGID_00000056423358498902505590000008946354028230810298_);fill-rule:evenodd;clip-rule:evenodd;fill:#4D4D4D;}
	
		.st96{clip-path:url(#SVGID_00000061459240278476315550000003307615350627742109_);fill:url(#SVGID_00000076580015008593943230000013593581191263109526_);}
	
		.st97{clip-path:url(#SVGID_00000044175416619754079260000016566569554472429733_);fill-rule:evenodd;clip-rule:evenodd;fill:#FFFFFF;}
	
		.st98{clip-path:url(#SVGID_00000044175416619754079260000016566569554472429733_);fill-rule:evenodd;clip-rule:evenodd;fill:#808080;}
	
		.st99{clip-path:url(#SVGID_00000044175416619754079260000016566569554472429733_);fill-rule:evenodd;clip-rule:evenodd;fill:#666666;}
	
		.st100{clip-path:url(#SVGID_00000010296417381523130960000010060248918574681260_);fill:url(#SVGID_00000142164404183147554340000008128750256157783975_);}
	
		.st101{clip-path:url(#SVGID_00000083086027695607141920000010466962725720180364_);fill-rule:evenodd;clip-rule:evenodd;fill:#CCCCCC;}
	
		.st102{clip-path:url(#SVGID_00000083086027695607141920000010466962725720180364_);fill-rule:evenodd;clip-rule:evenodd;fill:#808080;}
	
		.st103{clip-path:url(#SVGID_00000083086027695607141920000010466962725720180364_);fill-rule:evenodd;clip-rule:evenodd;fill:#FFFFFF;}
</style>
<g>
	<g>
		<defs>
			<rect id="SVGID_1_" width="600" height="600"/>
		</defs>
		<clipPath id="SVGID_00000035489502211095269950000006213817172658069671_">
			<use xlink:href="#SVGID_1_"  style="overflow:visible;"/>
		</clipPath>
		<g style="clip-path:url(#SVGID_00000035489502211095269950000006213817172658069671_);">
			<defs>
				<rect id="SVGID_00000046321241020967521690000012999289022057099930_" width="600" height="600"/>
			</defs>
			<clipPath id="SVGID_00000029027014969498437910000009449310736245322909_">
				<use xlink:href="#SVGID_00000046321241020967521690000012999289022057099930_"  style="overflow:visible;"/>
			</clipPath>
			<g style="clip-path:url(#SVGID_00000029027014969498437910000009449310736245322909_);">
				<defs>
					<rect id="SVGID_00000102511989515602243110000018375570069720197260_" width="600" height="600"/>
				</defs>
				<clipPath id="SVGID_00000069387875793949550440000016310305022940370305_">
					<use xlink:href="#SVGID_00000102511989515602243110000018375570069720197260_"  style="overflow:visible;"/>
				</clipPath>
				<g style="opacity:0.5;clip-path:url(#SVGID_00000069387875793949550440000016310305022940370305_);">
					<g>
						<defs>
							<rect id="SVGID_00000168812220132521498460000017739723980631650214_" x="176.5" y="174.7" width="249.1" height="127.3"/>
						</defs>
						<clipPath id="SVGID_00000119109648164025618960000008485002620874261916_">
							<use xlink:href="#SVGID_00000168812220132521498460000017739723980631650214_"  style="overflow:visible;"/>
						</clipPath>
						
							<polygon style="clip-path:url(#SVGID_00000119109648164025618960000008485002620874261916_);fill-rule:evenodd;clip-rule:evenodd;fill:#CCCCCC;" points="
							300.2,174.7 303.9,255.5 319.9,176.2 310.8,256.6 339,180.8 317.5,258.8 357.1,188.4 323.7,262 373.9,198.6 329.4,266.1 
							388.9,211.4 334.3,271.1 401.6,226.3 338.4,276.8 411.9,243.1 341.6,283 419.4,261.3 343.7,289.7 424,280.4 344.8,296.6 
							425.6,300 382,302 228.2,302 224.9,297.7 255.7,296.4 176.5,280.4 256.8,289.4 181.1,261.3 259,282.8 188.6,243.1 
							262.2,276.5 198.9,226.3 266.4,270.9 211.6,211.4 271.3,265.9 226.6,198.6 277,261.8 243.4,188.4 283.3,258.7 261.5,180.8 
							290,256.5 280.6,176.2 296.9,255.4 						"/>
					</g>
				</g>
				
					<path style="clip-path:url(#SVGID_00000069387875793949550440000016310305022940370305_);fill-rule:evenodd;clip-rule:evenodd;fill:#D10A0D;" d="
					M155.7,322.7h289.1c1.1-7.4,1.7-15,1.7-22.7c0-80.8-65.5-146.3-146.3-146.3S154,219.2,154,300
					C154,307.7,154.6,315.3,155.7,322.7 M300.2,142.8c86.8,0,157.2,70.4,157.2,157.2c0,7.7-0.6,15.3-1.6,22.7h23.8v10.4H454h-11.2
					H157.7h-11.2h-23.6h-2v-10.4h23.8c-1.1-7.4-1.6-15-1.6-22.7C143,213.2,213.4,142.8,300.2,142.8"/>
				
					<polygon style="clip-path:url(#SVGID_00000069387875793949550440000016310305022940370305_);fill-rule:evenodd;clip-rule:evenodd;" points="
					432.8,308.7 378.3,332.8 286.1,330.7 167.2,307.7 231.8,292.5 				"/>
				
					<path style="clip-path:url(#SVGID_00000069387875793949550440000016310305022940370305_);fill-rule:evenodd;clip-rule:evenodd;fill:#FFFFFF;" d="
					M265.7,255.5l1-19.8l0-0.1c0.1-1.2,0.5-2.6,1.2-3.9c-0.2-0.5-0.4-1.1-0.4-1.8c0-0.2,0-0.7,0-1.3c0-0.4,0-0.9,0-1.4v0l0,0v0h0
					c0-1.4,0.7-2.4,1.7-3.1c0.7-0.5,1.7-0.8,2.6-0.8v0h0l0,0l26.8,0.1c2.5-0.3,6.2-0.6,10.4-0.9c3.9-0.2,8.4-0.5,13.1-0.6
					c1.9-0.1,3.8-0.1,5.7,0c1.9,0,3.7,0.1,5.7,0.2h0c6.6,0.3,12.4,0.7,17.4,1c5,0.4,9.2,0.7,12.7,1.1l0.1,0c5.1,0.8,9,1.8,11.6,3
					c3.6,1.7,5.2,3.9,4.9,6.8l0,0.3l-0.1,0.3c-0.2,0.6-0.5,1.1-0.9,1.5c-0.5,0.6-1.2,1-2,1.1l0,0c1,2.1,2,4.2,3,6.4
					c1.6,3.5,3.2,7,4.8,10.7c7.3,1.3,13.7,2.8,19.1,4.5c5.6,1.8,10.2,3.7,13.8,6l0.1,0.1l0.1,0.1c0.9,0.7,1.6,1.6,2.1,2.7
					c0.4,1,0.6,2.1,0.6,3.3h0l0.2,14l0,0.3l0,0.2l0,0.1c0.1,0.1,0.2,0.2,0.3,0.3c0.7,0.9,0.9,1.9,0.8,2.9l-0.5,7.9v0l-0.2,2.7
					c-0.2,1.5-0.5,2.7-1.3,3.5c-1.2,1.6-5.8,3.4-12.9,5.5c-3.3,2.7-7.3,4.1-11.9,4.2c0,0-3.1-1.7-9.2-5.2c0,0-12.2,2.2-36.6,6.5
					c0,0-38.6-7.4-115.8-22.1c0,0-8.7,5.4-26,16.3c-2.4-0.1-4.4-1.2-5.9-3.2c0,0-0.6,0-1.8,0c-2.7,0.2-4.3-0.6-4.7-2.5l-0.1-7.3
					l-0.7-0.3l-10.4,1l-3,0.3l-0.1-3.1l0-0.8l-3,0.2l-0.1,0l-0.2,0c-0.9-0.1-1.7-0.4-2.4-0.8c-0.9-0.6-1.8-1.6-2.1-2l-0.3-0.7l0-0.7
					l0.1-3.2l-3.2-1.3l-1.8-0.8l0-1.9l0.1-2.7l0.1-2.7l2.7-0.1l3-0.1l2.1-2.1l0.8-0.9h1.2l8.5,0c-0.1-0.3-0.2-0.5-0.3-0.8
					c-0.6-2.2-0.8-4.9-0.4-7.9l0.2-1.2l0.4-0.3c0-0.6,0.1-1.1,0.1-1.6c0.2-1.3,0.6-2.3,1.2-2.9c1-1,1.8-1.8,2.6-2.4
					c1.1-0.9,2-1.4,2.9-1.5l0.1,0l0.1,0l3.4-0.1c0.3-0.3,0.5-0.5,0.8-0.7c0.6-0.5,1-0.9,1.4-1.1l0.6-0.3l0.7,0l2.6-0.2
					c0.2-0.3,0.5-0.6,0.8-0.9c1-1,2.2-1.7,3.6-2c1.1-0.3,2.2-0.3,3.3-0.1c0.5-1.2,1.4-2,2.8-2.5l0.2-0.1l0.2,0
					c2.2-0.5,5.7-0.8,9.5-0.9c4.4-0.1,9.3-0.1,13,0.2h0c1.7,0.1,3,0.6,4,1.6l0,0l3.3,3.1c0.6-0.1,1.1-0.1,1.5-0.1
					c1.3,0,2.3,0.4,3.1,1l0.1,0.1l0.1,0.1c0.4,0.4,0.7,1,1.1,1.8l0.1,0.2c2.3,0.1,4.3,0.2,6.2,0.4c2.5,0.3,4.7,0.6,6.6,1.1
					C263.3,254.4,264.5,254.9,265.7,255.5"/>
				
					<path style="clip-path:url(#SVGID_00000069387875793949550440000016310305022940370305_);fill-rule:evenodd;clip-rule:evenodd;" d="
					M224.9,291.2c1.8,0.3,3.2-0.5,3.8-2.1c0,0-1.3,0-4.2-0.1C224.7,289.9,224.9,290.9,224.9,291.2 M269.5,235.9l-1.3,25.9
					c-1.4-2.3-3.6-4.1-7-4.9c-3.3-0.8-8.1-1.4-14-1.5c-0.4-1.2-0.9-2.4-1.3-2.8c-0.5-0.4-1.7-0.4-3.7-0.1c0,0-1.4-1.4-4.3-4.1
					c-0.5-0.5-1.2-0.7-2.1-0.8c-6.5-0.4-17.3-0.3-21.6,0.7c-1.1,0.4-1.5,1.6-1.3,3.7c0,0.6-0.2,0.7-0.7,0.3
					c-2.6-2.6-6.6-1.4-7.7,1.6c0,0-1.4,0.1-4.2,0.3c-0.5,0.3-1.3,1-2.4,2.2c0,0-1.5,0.1-4.5,0.2c-0.7,0.1-2,1.2-3.9,3.2
					c-0.2,0.2-0.4,1.5-0.5,3.8c0,0-0.2,0.1-0.5,0.3c-0.7,5.3,0.4,9,3.2,11.2c0,0-4.6,0-13.9,0c0,0-1,1-2.9,2.9c0,0-1.4,0-4.1,0.1
					c0,0,0,0.9-0.1,2.7c0,0,1.7,0.7,5,2.1c0,0,0,1.1-0.1,5.2c0.1,0.2,1.2,1.3,2.1,1.3c0,0,2.5-0.1,8.7-0.5c0,0,0.7,0.4,2,1.2
					c0,0-1.6,0.2-4.7,0.7c0,0,0,0.6,0.1,1.9c0,0,3.7-0.4,11.1-1.1c0,0,1,0.4,3.1,1.2c0,0,0,3.1,0.1,9.4c0,0.6,0.5,0.8,1.7,0.7
					c0,0,0.9,0,2.8-0.1c1.8,4.4,4.8,5.8,9.3,5.3c4-0.4,6.8-0.8,8.8-1.2c4.3-1,4.9-4.4,5.3-8.5c0,0,1.1-0.2,3.3-0.5
					c0.3,0,0.6,0.1,0.8,0.4c2.2,1.7,5.5,2.2,8.9-0.1c0.8-0.6,1.3-0.6,1.7,0.1c0.9,2.1,3.1,3.7,6.4,4c2.9,0.3,9.1,0.9,18.6,1.9
					c0,0,2.4-0.4,7.2-1.3c0,0,0,1.5-0.1,4.5c0,0,7.9,0.5,23.8,1.6c0,0,0,0.9-0.1,2.7c0,0,10,0.7,30,2.1c0,0,0.4-0.2,1.2-0.5
					c0,1.4,0,3.4,1.8,3c0,0,2.4-0.4,5.7-1c3.4,7.9,9.6,12,18,11.8c9.4-0.1,15.1-5.5,16.4-14.1c3.7-0.3,8.6-0.9,15.8-1.8
					c8.3,3.6,17.1,0.3,20.2-4.8c2.9-0.8,12.7-2.8,12.7-6.3c0,0,0.3-3.9,0.8-11.8c0.1-0.4-0.3-1.1-1.4-1.9c0.1-0.3,0.3-0.8,0.4-1.4
					c0,0-0.1-4.7-0.2-14c0-1.6-0.5-2.9-1.6-3.8c-6.8-4.2-17.5-7.6-32.2-10.1c-0.6-0.2-1.1-0.6-1.6-1.2c-3.4-7.7-6.6-14.8-9.7-21.3
					c0,0,1.3-0.1,3.9-0.2c0.3-0.1,0.6-0.3,0.7-0.8c0.3-2.9-4.3-5.1-14.1-6.6c-6.8-0.8-16.8-1.5-29.9-2.1c-3.9-0.2-7.4-0.3-11.2-0.1
					c-9.4,0.3-18.7,0.9-23.4,1.5c0,0-7.8,0-27-0.1c-0.6,0-1.4,0.4-1.4,1.1c0,1.2-0.1,2.2,0,2.7c0,0.9,1.5,1.1,2.3,1.2
					C270.8,231.7,269.7,234.1,269.5,235.9"/>
				
					<path style="clip-path:url(#SVGID_00000069387875793949550440000016310305022940370305_);fill-rule:evenodd;clip-rule:evenodd;fill:#808080;" d="
					M254.4,278.9l3.2,0.1l0,1.2l-3.2-0.1L254.4,278.9z M243.1,278.7l3,0.1l0,1.2l-3-0.1L243.1,278.7z M232.6,278.5l2.3,0l0,1.1
					l-2.3,0L232.6,278.5z M222.6,278.3l2.2,0l0,1.1l-2.2,0L222.6,278.3z M213.2,278.1l2.1,0l0,1.1l-2.1,0L213.2,278.1z M204.7,278
					l2.2,0l0,1.1l-2.2,0L204.7,278z M197,277.8l2.2,0l0,1l-2.2,0L197,277.8z M269.8,280.5c-0.4,1.4-1.9,1.5-3.1,1.5l-93.2-2.1
					l4.4,2.4c0,0-1.9-0.8-5.8-2.5c0,0,0-0.3,0-0.9c2.3,0,3.4,0.1,3.4,0.1c1.9-1.8,2.9-2.7,2.9-2.7c56.9,0.9,85.4,1.3,85.4,1.3
					c1,1.3,1.7,2.2,2,2.6C266.7,281.5,268.9,281.3,269.8,280.5"/>
				
					<path style="clip-path:url(#SVGID_00000069387875793949550440000016310305022940370305_);fill-rule:evenodd;clip-rule:evenodd;fill:#CCCCCC;" d="
					M179,277.3c-1.1,1-1.7,1.7-1.7,1.7s28.6,0.6,86.6,1.7c0,0-0.2-0.7-0.6-2.1c0,0,0.7,0.9,2.2,2.7c0,0-31-0.6-92.9-1.7
					c0,0,0-0.1,0-0.3c0,0,1.1,0,3.4,0c0,0,0.9-0.8,2.7-2.5C190.2,277,196,277,196,277C184.7,277.2,179,277.3,179,277.3"/>
				
					<path style="clip-path:url(#SVGID_00000069387875793949550440000016310305022940370305_);fill-rule:evenodd;clip-rule:evenodd;fill:#808080;" d="
					M267.4,286.5l-88-3.2c0,0,0-0.3,0-0.9l88,2.7L267.4,286.5z"/>
				
					<path style="clip-path:url(#SVGID_00000069387875793949550440000016310305022940370305_);fill-rule:evenodd;clip-rule:evenodd;fill:#808080;" d="
					M178.4,287.1c0,0.4,0.1,0.6,0.2,0.8c-0.6,0.1-0.9-0.2-1.4-0.5c0,0,0-1.1,0-3.3c0.8,0.2,1.2,0.3,1.2,0.3
					C178.4,286.2,178.4,287.1,178.4,287.1"/>
			</g>
			<g style="clip-path:url(#SVGID_00000029027014969498437910000009449310736245322909_);">
				<defs>
					<path id="SVGID_00000086660163764162986030000015192008805991337896_" d="M206.9,295.8c-0.1,1.5,0.4,3.2,1.2,3.9
						c0.9,0.8,1.3-0.1,1.6-0.9c-1.5,0-2.1-1.2-1.9-3.6c0.4,1.4,1.1,2.1,2.1,2.2c0.1-1.6-0.2-3.5-0.9-4.1c-0.2-0.1-0.4-0.2-0.5-0.2
						C207.7,293,207,294.2,206.9,295.8 M210.6,295.9c0.2,3.7-0.8,6.4-2.2,7c-1.4,0.6-2.7-0.9-3.2-2.1c1.3,1.2,2.6,1.4,3.2,0.9
						c-2.8-1.6-3.7-7.7-0.8-10.1c-0.6-0.7-1.4-0.8-2.2-0.3C207.7,288.6,210.2,291.2,210.6,295.9 M203,296.3c0.1,4.3,2.2,7.8,4.5,7.8
						c2.4,0.1,4.2-3.4,4-7.6c-0.1-4.3-2.2-7.8-4.5-7.8c0,0,0,0-0.1,0C204.7,288.7,202.9,292.1,203,296.3"/>
				</defs>
				<clipPath id="SVGID_00000089564931787794210020000010448928481797491621_">
					<use xlink:href="#SVGID_00000086660163764162986030000015192008805991337896_"  style="overflow:visible;"/>
				</clipPath>
				
					<linearGradient id="SVGID_00000047744661049447517670000006089379765920919442_" gradientUnits="userSpaceOnUse" x1="0" y1="599.9999" x2="1" y2="599.9999" gradientTransform="matrix(0.8202 -28.3009 -11.6064 -0.3364 7170.8877 507.2876)">
					<stop  offset="0" style="stop-color:#999999"/>
					<stop  offset="1" style="stop-color:#FEFEFE"/>
				</linearGradient>
				
					<polygon style="clip-path:url(#SVGID_00000089564931787794210020000010448928481797491621_);fill:url(#SVGID_00000047744661049447517670000006089379765920919442_);" points="
					202.4,304.2 202.9,288.4 212.2,288.7 211.7,304.4 				"/>
			</g>
			<g style="clip-path:url(#SVGID_00000029027014969498437910000009449310736245322909_);">
				<defs>
					<rect id="SVGID_00000119826769167025766010000003214410536559672457_" width="600" height="600"/>
				</defs>
				<clipPath id="SVGID_00000066480577977288706620000017772559678885147033_">
					<use xlink:href="#SVGID_00000119826769167025766010000003214410536559672457_"  style="overflow:visible;"/>
				</clipPath>
				
					<path style="clip-path:url(#SVGID_00000066480577977288706620000017772559678885147033_);fill-rule:evenodd;clip-rule:evenodd;fill:#FFFFFF;" d="
					M204.7,293c-1.1,2.5-0.2,6.1,1.6,7.4c-1.4-2.2-1.6-5-0.6-8.3C205.2,292.2,204.9,292.5,204.7,293"/>
				
					<path style="clip-path:url(#SVGID_00000066480577977288706620000017772559678885147033_);fill-rule:evenodd;clip-rule:evenodd;fill:#4D4D4D;" d="
					M208,285.5c3.1,1.1,5.2,5.3,5.2,9.9c-0.9-7.2-7.5-14.2-11.3-4.9c0.7-3.5,2.3-5.1,4.8-5.4c1.9-0.1,2.8-0.2,2.8-0.2
					C208.3,285.4,208,285.5,208,285.5"/>
				
					<path style="clip-path:url(#SVGID_00000066480577977288706620000017772559678885147033_);fill-rule:evenodd;clip-rule:evenodd;fill:#4D4D4D;" d="
					M212.9,301c-0.1,5.1-2.4,6.7-4.5,5.9C210.4,306.7,212.3,305.4,212.9,301"/>
				
					<path style="clip-path:url(#SVGID_00000066480577977288706620000017772559678885147033_);fill-rule:evenodd;clip-rule:evenodd;fill:#4D4D4D;" d="
					M363.8,316.7c-1.1,5-3.9,7.9-8.4,8.6C359.4,324.2,362.2,321.3,363.8,316.7 M364,305c-3.7-16.6-20.8-21.6-27.9-5.9
					C344,284.7,359.8,290.3,364,305 M217.3,305.8c3-1,4-6,2.3-11.4C220.4,300.4,219.5,304.5,217.3,305.8"/>
				
					<path style="clip-path:url(#SVGID_00000066480577977288706620000017772559678885147033_);fill-rule:evenodd;clip-rule:evenodd;fill:#999999;" d="
					M252,289.2l2.1,0l0,1.3l-2.1-0.1L252,289.2z M264.2,300.5l-21.3-2.1l0.1-11.1l21.3,0.8L264.2,300.5z"/>
				
					<path style="clip-path:url(#SVGID_00000066480577977288706620000017772559678885147033_);fill-rule:evenodd;clip-rule:evenodd;fill:#808080;" d="
					M291.4,227.4c-1.5,0.1-4.8,0.4-7.3,0.6c0,0-4.4-0.1-11.2-0.2c0,0,1,0.2,1,0.6c0,0.3,0,0.7,0,1.2c0,0-0.6,0-1.9,0
					c-0.4,0-0.5-0.1-0.6-0.4c0,0,0-0.5,0-1.6c0-0.5,0.4-0.7,1.3-0.7C284,227.3,291.4,227.4,291.4,227.4"/>
				
					<path style="clip-path:url(#SVGID_00000066480577977288706620000017772559678885147033_);fill-rule:evenodd;clip-rule:evenodd;fill:#B2B2B2;" d="
					M272,279.1c0,0.4-0.3,0.5-0.6,0.5c-0.4,0-1.3-0.1-2.6-0.2c0,0,0.7-14.4,2-43.1c0.2-3.4,2.5-4.8,5.6-4.8c0.8,0.1,0.9,0.3,0.2,0.5
					c-1.7,0.6-2.5,1.9-2.5,3.8l-0.7,14.6c-0.3,0.5-0.5,1.2-0.6,2.1C272,261.4,272.4,270.2,272,279.1"/>
				
					<path style="clip-path:url(#SVGID_00000066480577977288706620000017772559678885147033_);fill-rule:evenodd;clip-rule:evenodd;fill:#FFFFFF;" d="
					M272.8,236.2c-0.6,25.8,0.3,8.3,0.6-0.1c0.1-2,0.5-3.4,1.3-4c-2,0.6-3.2,2-3.4,4.1C272.3,236.2,272.8,236.2,272.8,236.2"/>
			</g>
			<g style="clip-path:url(#SVGID_00000029027014969498437910000009449310736245322909_);">
				<defs>
					<path id="SVGID_00000170975628200263966090000004842044130389230013_" d="M304,256.8c-0.2,8.3,0.1,15.2,0.6,20.7
						c0.1,0.7,0.3,1.1,0.8,1.5c-0.5-7.7-0.8-15.6-0.8-23.7C304.1,255.5,303.9,256,304,256.8 M280.1,277.3c-1-0.8-1.5-2.8-1.6-6.2
						c-0.1-0.9,0.3-1.1,1.3-1.2c1-0.1,1.8,0,2.1,1c0.2,1,0.3,3.6,0.3,6.3c0,0.5-0.4,0.7-0.8,0.7C281,277.8,280.5,277.6,280.1,277.3
						 M295.5,261.8c0,0-3.5-0.4-10.5-1.2c-2.9-0.5-4.3-2.3-4.3-5.4c0,0,0-3.8,0-11.3c0-1.9,0.8-3.3,2.9-3.6c6-0.4,8.9-0.6,8.9-0.6
						c1.9-0.2,3.1,0.6,3.7,2.4c2.2,7.2,3.3,10.8,3.3,10.8c0.4,1.7,0.6,3,0.4,6.2c-0.2,1.8-1.5,2.7-3.7,2.7
						C295.9,261.9,295.7,261.9,295.5,261.8 M297.3,234.4c0.8,0.7,1.2,1.9,1.5,3c3,12.2,3.8,15.9,2.4,11.2c0,0-1-3.6-2.9-10.9
						c-0.4-1.6-1.5-3.2-3.4-3l-18.2,1.8c-0.4,1.8-0.8,6.1-1.1,11.6c0.5-0.4,0.8-0.4,0.9-0.1c0.1,1,0.1,1.9-0.1,2.7
						c-0.4,0.6-0.7,1.1-1,1.5c-0.2,6.9-0.3,14.8,0.1,21.8c0.3,0.3,0.6,0.5,0.8,0.9c0.3,0.5,0.4,1.2,0.3,1.7c0,0.5-0.2,0.8-0.9,0.5
						c0,0.3,0,0.1,0,0.4c0.6,7.6,1.7,10.8,3.9,11l27.4,0.8c-0.4-0.5-0.7-1.3-0.8-2.3c-0.2-1.7-0.3-2.5-0.3-2.5
						c-1.3,0.3-1.7-0.2-1.9-1.4c-0.1-0.6-0.3-1.1-0.6-1.3c-0.2-0.2-0.4-0.4-0.5-0.5l-4.3,6.1l3.9-6.6c-0.7-1-1.1-2-1-3.1
						c-0.5-7.2-0.6-14.7-0.3-21.8c0.1-1.5,0.9-1.9,1.3-3.2c0.1-0.3,0-0.8,0.1-1.2c0.1-1,1.1-1.3,2.3-1.2c0.2-5.5,0.3-9.7,0.6-13.9
						c0.1-1.2,0.4-2.3,1.1-2.8L297.3,234.4z M309.3,277.4c-1-0.8-1.5-3.1-1.5-6.8c-0.1-0.9,0.3-1.2,1.3-1.3c1-0.1,1.8,0,2.1,1.1
						c0.2,1.1,0.3,3.9,0.3,6.9c0,0.5-0.4,0.7-0.9,0.7C310.2,278,309.7,277.8,309.3,277.4 M324.4,231.7c0,0-5.2,0.5-16.2,1.6
						c-1.2,0.1-1.6,1.6-1.8,2.7c-1.1,19.9-0.9,36.8,0.8,50.9c0.1,1.2,0.5,2,1.2,2.4l21.2,0.6c1.9-4.2,2.7-5.8,6.8-10l-0.8-27.4
						l-4.7-15.2c-0.4,0.4-1,0.5-1.7,0.2c-0.8-0.4-0.9-0.1-0.3,1c2.9,9.5,4.4,14.3,4.4,14.3s0,1.7-0.1,5.1c-0.3,2.5-1.6,3.5-4,3.2
						c0,0-2.8-0.3-8.5-1c0,0,0,0.5,0,1.5c0,1.3-0.6,1.5-1.3,1.7c0,0.8,0.4,1.3,1.1,1.4c0,0,1.7,0,5.2,0.1c0,0,0-0.3,0-1
						c-0.1-0.4,0.2-0.6,0.7-0.7c0,0,1.3,0,3.9,0.1c0.4,0.2,0.5,0.6,0.2,1.5c0,0-0.7,0.6-2,1.8c-0.3,0.2-1,0.3-2.2,0.3
						c0,0-2-0.1-6.1-0.2c-1.9-0.1-2.7-1.4-2.8-3.2c0,0-1.1,0-3.2-0.1c-1.3,0-2.5-0.7-2.4-2.2c0,0,0-0.5,0-2.8
						c-1.4-1.1-1.8-2.5-1.8-4.4c0,0,0-4.5,0.1-13.6c0.1-1.9,1.1-3.1,3.1-3.5c-0.3,0,0.5-0.1,2.4-0.3c0.1-1.2,1.4-1.7,2.2-1.7
						c0,0,2.6-0.1,7.9-0.3c0.5,0,0.7-0.5,0.9-0.9c0.2-0.6,0.7-1,1.6-1.2c-0.9-0.5-2-0.7-3.4-0.7
						C324.6,231.7,324.5,231.7,324.4,231.7 M366.5,283.6c0.1-2.3,1.4-4,3.7-4.1c3.4-0.2,9.3,0.2,12.9,0.9c3.4,0.7,5.2,1.8,7,4.9
						c1.3,2.4,1,3.7-0.7,3.9c-2.5,0.4-8,0.5-16.3,0.4c-0.2,0-0.3,0-0.5,0C368.3,289.5,366.4,286.4,366.5,283.6 M322.1,226.2
						c-9.1,0.3-22.4,1.4-39.7,3.4c-3.1,0.5-4.9,2.2-5.5,5.7c16.5-1.9,32.2-3.5,47-4.8c3.6-0.2,5.9,1,7.1,3.5
						c3.8,12.2,5.7,18.3,5.7,18.3s0.3,9,0.8,26.9c0-0.2,1.6-1.7,4.6-3.3c0,0,0-2.8,0-8.4c0-1.3,0.9-2.4,2.7-3.4
						c-0.9,0.7-1.5,1.8-1.8,3.3l0,8.2c1.1-0.5,2.8-0.9,3.9-1c-2.2,0.8-4.3,1.8-5.2,2.9c-0.4,0.6-0.7,1.9-0.7,2.8
						c-0.3-0.4-0.2-1.8-0.1-2.4c-6.7,5.1-10.8,12.3-10.8,18.6c2.2-7.9,6.2-13.1,11.8-15.6c9.7-3.2,17.7,0.8,23.9,12
						c0.4,0.5,1,0.7,1.8,0.7c14.5-0.2,23-0.8,28.4-1.9c-1.7-0.8-2.3-3.5-2.5-5.1c-0.2-2.3-0.4-5.3-0.9-11.8c0-1.7,0.7-2.9,2.1-3.6
						c2.6-1,5.3-1.7,8.2-2.3c1.1-0.2,1.3,0.1,1.5,0.4c0.2,0.3,0.3,0.5,0.9,0.5c1.9-0.2,3.2-0.4,3.7-0.4c0.3,0,0.6-0.1,0.6-0.5
						c0-0.9,0.8-0.9,1.5-0.9c1.3-0.1,2.1-0.1,3.4-0.1c-7-4.1-18-7.3-33-9.7c0,0-1.6-3.4-4.8-10.3c0,0,1.1,3.4,3.4,10.3
						c-10.5,0.4-21.8,1.7-33,3.9c-2.7,0.5-4.6-0.7-5.7-3.2c0,0-2.6-7.6-7.9-22.9c-0.1-1.5,0.6-2.4,2.2-2.7c0,0-1.2-0.2-3.7-0.7
						c0,0,14.3,0.2,43,0.6c0.6-0.7-0.3-1.7-2.9-2.8c-5.2-1.7-16-2.8-24.5-3.4c-7.6-0.5-15.5-0.9-21.5-0.9
						C324.6,226.1,323.3,226.2,322.1,226.2"/>
				</defs>
				<clipPath id="SVGID_00000000911184838875582410000007661306573561566114_">
					<use xlink:href="#SVGID_00000170975628200263966090000004842044130389230013_"  style="overflow:visible;"/>
				</clipPath>
				
					<linearGradient id="SVGID_00000159464875452951242330000008757107078913243532_" gradientUnits="userSpaceOnUse" x1="0" y1="599.9999" x2="1" y2="599.9999" gradientTransform="matrix(1.1455 29.1579 42.3922 -1.6655 -25090.6133 1259.906)">
					<stop  offset="0" style="stop-color:#FF0000"/>
					<stop  offset="0.44" style="stop-color:#FB0101"/>
					<stop  offset="1" style="stop-color:#C40E11"/>
				</linearGradient>
				
					<polygon style="clip-path:url(#SVGID_00000000911184838875582410000007661306573561566114_);fill:url(#SVGID_00000159464875452951242330000008757107078913243532_);" points="
					414.1,220.7 417.1,296.5 275.4,302 272.4,226.2 				"/>
			</g>
			<g style="clip-path:url(#SVGID_00000029027014969498437910000009449310736245322909_);">
				<defs>
					<path id="SVGID_00000065034674266137088690000014648989852108389774_" d="M275.3,249.4c-0.9,0.8-1.4,1.6-1.7,2.4
						c-0.5,5.8-0.7,16.2-0.3,21.7c0.1,1.1,2.4,3.1,2.5,2.4c0.1-0.2-0.1-0.5-0.4-0.9c-0.5-0.4-0.8-0.8-1-1.2
						c-0.5-4.2-0.5-11.4,0.1-21.6c0.1-0.6,0.5-1.2,1.2-2c0-0.3,0.1-0.9,0-1.7C275.5,248.7,275.3,249,275.3,249.4"/>
				</defs>
				<clipPath id="SVGID_00000065789451624929207010000004109771614137359284_">
					<use xlink:href="#SVGID_00000065034674266137088690000014648989852108389774_"  style="overflow:visible;"/>
				</clipPath>
				
					<linearGradient id="SVGID_00000170968254373089798770000014787579280422090659_" gradientUnits="userSpaceOnUse" x1="0" y1="600" x2="1" y2="600" gradientTransform="matrix(1.137 -24.2926 -27.7869 -1.3005 16946.4707 1045.2104)">
					<stop  offset="0" style="stop-color:#B3B3B3"/>
					<stop  offset="1" style="stop-color:#FEFEFE"/>
				</linearGradient>
				
					<polygon style="clip-path:url(#SVGID_00000065789451624929207010000004109771614137359284_);fill:url(#SVGID_00000170968254373089798770000014787579280422090659_);" points="
					271.6,276.5 272.9,248.5 277.3,248.7 276,276.7 				"/>
			</g>
			<g style="clip-path:url(#SVGID_00000029027014969498437910000009449310736245322909_);">
				<defs>
					<path id="SVGID_00000109007853643455863580000010504451229941251769_" d="M303.7,252.2c0,0.6-0.1,1-0.4,1.4
						c-0.7,1.2-1,1.4-1,2.7c-0.3,6-0.1,13.6,0.6,22.1c0.2,2.4,1.9,2.1,2.2,4.4c0,0.3,0.2,0.6,0.4,0.7c0.3,0.1,0.4-0.2,0.4-0.4
						c0-0.5,0-0.8-0.1-1.9c-0.1-1.1-1.7-1.4-1.8-3.2c-0.5-5.2-1-14.6-0.6-21.7c-0.1-1.6,1.4-2,1.3-4.3c-0.1-0.5-0.2-0.8-0.4-0.7
						c0,0-0.1,0-0.1,0C303.8,251.3,303.6,251.6,303.7,252.2"/>
				</defs>
				<clipPath id="SVGID_00000052814090052427386310000007269388595732114608_">
					<use xlink:href="#SVGID_00000109007853643455863580000010504451229941251769_"  style="overflow:visible;"/>
				</clipPath>
				
					<linearGradient id="SVGID_00000148656437014131831560000009370320146355154577_" gradientUnits="userSpaceOnUse" x1="0" y1="599.9999" x2="1" y2="599.9999" gradientTransform="matrix(1.119 -23.9092 -6.5907 -0.3085 4258.3628 451.1679)">
					<stop  offset="0" style="stop-color:#B3B3B3"/>
					<stop  offset="1" style="stop-color:#FEFEFE"/>
				</linearGradient>
				
					<polygon style="clip-path:url(#SVGID_00000052814090052427386310000007269388595732114608_);fill:url(#SVGID_00000148656437014131831560000009370320146355154577_);" points="
					300.5,283.5 302,251.1 307.3,251.3 305.7,283.7 				"/>
			</g>
			<g style="clip-path:url(#SVGID_00000029027014969498437910000009449310736245322909_);">
				<defs>
					<rect id="SVGID_00000022544359403332777220000008070504753505505983_" width="600" height="600"/>
				</defs>
				<clipPath id="SVGID_00000084531957940668033940000015962199299912328324_">
					<use xlink:href="#SVGID_00000022544359403332777220000008070504753505505983_"  style="overflow:visible;"/>
				</clipPath>
				
					<path style="clip-path:url(#SVGID_00000084531957940668033940000015962199299912328324_);fill-rule:evenodd;clip-rule:evenodd;fill:#1A1A1A;" d="
					M311,280.4c-2.5,0-3.8-2.3-3.9-7.1c0.6,3.5,1.8,5.5,3.6,5.8c2.9,0.5,7.9,0.9,10.6,1.2C327.6,281.1,328.3,281.1,311,280.4
					 M293.4,280.9c-8.5-0.1-12.7-0.3-12.7-0.3c-1.2-0.1-2.2-2-2.8-5.8c0.9,2.6,1.6,3.7,3.7,4.1C288.7,279.9,297.4,281.1,293.4,280.9
					"/>
				
					<path style="clip-path:url(#SVGID_00000084531957940668033940000015962199299912328324_);fill-rule:evenodd;clip-rule:evenodd;fill:#666666;" d="
					M280.3,270.5c0.3,4,0.6,6.1,1,6.4c-1-0.1-1.6-2-1.9-5.8C279.3,270.7,279.6,270.5,280.3,270.5"/>
				
					<path style="clip-path:url(#SVGID_00000084531957940668033940000015962199299912328324_);fill-rule:evenodd;clip-rule:evenodd;fill:#666666;" d="
					M309.8,270.1c0.1,3.7,0.3,5.9,0.6,6.6c-1.1-0.2-1.7-2.3-1.7-6.2C308.7,270.2,309.1,270.1,309.8,270.1"/>
				
					<path style="clip-path:url(#SVGID_00000084531957940668033940000015962199299912328324_);fill-rule:evenodd;clip-rule:evenodd;fill:#FFD4D4;" d="
					M315.4,235.1c-4.2,0.3-6.4,1.7-6.4,4.2c0.5-2.1,2.4-3.2,5.8-3.5C315.2,235.3,315.4,235.1,315.4,235.1 M279.8,242
					c0.4-1.8,1.5-2.5,2.7-2.7c6.9-0.5,10.3-0.8,10.3-0.8c1.8-0.2,3.2,0.5,3.9,2.1c1.4,3.8,2.1,5.7,2.1,5.7c1.9,4.9,1.4,3-1.5-5.8
					c-0.7-2-2.4-2.9-4.5-2.8c-5.7,0.4-9,0.7-10.1,0.8C280.8,238.6,279.8,240.2,279.8,242"/>
				
					<path style="clip-path:url(#SVGID_00000084531957940668033940000015962199299912328324_);fill-rule:evenodd;clip-rule:evenodd;fill:#1A1A1A;" d="
					M333.9,257.9c-0.4,2.7-1.7,4-4,3.9c0,0-2.8-0.4-8.5-1.1c-0.1,0.8-0.1,1.2-0.1,1.2c3.9,0.5,6.2,0.8,7.7,0.9
					C332.3,263.2,333.8,261.1,333.9,257.9 M300.1,260.1c-0.6,2.3-2.8,2.8-4.9,2.6c-1.3-0.2-4.8-0.6-10.3-1.3c-3.2-0.4-5-2.6-5-5.7
					c0-1.2,0-4.1,0-8.5c-0.1-2.5-0.4,0.4-0.7,8.8c-0.5,0.1-0.7,0.1-0.7,0.1c0.3,3.5,2.1,6,5.9,6.5c5.7,0.8,8.8,1.2,10.3,1.4
					C297.5,264.3,299.8,263.1,300.1,260.1 M311.2,258.7c-0.1,1.2,0,1.9,0,1.9c-2.1-0.7-3.3-3.1-3.3-6.6c0,0,0.1,0,0.7-0.3
					c0.7-9.8,0.9-11.5,0.8-5c-0.1,3.3-0.1,5-0.1,5C309.2,256.4,309.6,257.9,311.2,258.7"/>
				
					<path style="clip-path:url(#SVGID_00000084531957940668033940000015962199299912328324_);fill-rule:evenodd;clip-rule:evenodd;fill:#1A1A1A;" d="
					M344.7,263.3c-1.3,0.7-2.4,1.5-3.1,2.3c-0.6-0.6-1.7-3.7-3.1-9.1c-7-23.2-6.5-22.6,1.4,1.6C341.5,261.4,343.1,263.1,344.7,263.3
					"/>
				
					<path style="clip-path:url(#SVGID_00000084531957940668033940000015962199299912328324_);fill-rule:evenodd;clip-rule:evenodd;fill:#1A1A1A;" d="
					M407,269c0,0,0.9-0.2,0.7-0.3c-0.3-0.2-1-0.8-2.1-1.4c0.6,0.2,2.7,0.7,3,1.2c0.1,0.2,0.1,0.3,0,0.4
					C408.5,268.9,407.3,269,407,269 M391.3,278.7c-0.3-2.5-0.2-3.8,0-5c0.2-2,2.4-3.5,4.3-4c-10.7-3-23.8-5.3-37.2-6.7
					c2.5-1.3,8-2.4,16.5-3.3c-11.1,0.4-20.4,1.7-27.7,3.9c-1.8,0.7-2.8,1.9-3.2,3.5c0.1,2.4,0.1,3.7,0.1,3.7
					c0.3-2.2,0.4-3.3,0.4-3.3c18.9,1.2,33.6,3.3,44.5,6.2C390.8,274.2,390.8,276.6,391.3,278.7"/>
				
					<path style="clip-path:url(#SVGID_00000084531957940668033940000015962199299912328324_);fill-rule:evenodd;clip-rule:evenodd;fill:#1A1A1A;" d="
					M393.9,291.1c-5.9,1.4-14.5,1.6-22.6,1.8c0,0,0.5-0.2,1.4-0.5c0,0-0.4-0.7-1.1-2.1c9.4,0.4,16,0.2,19.6-0.7c0.9-0.6,0.9-1.9,0-4
					c1.1,1.3,1.6,1.9,1.6,1.9C392.9,288.9,393.3,290.1,393.9,291.1 M340,279.9c0.1,0.6,0.1,0.8,0.1,0.8c-1.1,0.6-2.7,2-4.8,4
					C337.2,282.2,338.7,280.6,340,279.9 M384.8,279.8c-10.7-7.6-30.1-9.7-42.4-1.7c-0.3,0.4-0.4,0.8-0.4,1.3
					c10.1-2.4,17.9,1,23.2,10.1c-2.5-5.5-6-9.1-10.3-10.7c4,0.3,7.5,1.7,10.4,4.5c0.1-2.8,1.8-4.8,5-4.9
					C374.3,278.3,379.1,278.5,384.8,279.8"/>
			</g>
			<g style="clip-path:url(#SVGID_00000029027014969498437910000009449310736245322909_);">
				<defs>
					<path id="SVGID_00000140728159044335938870000009781774776176264894_" d="M327.5,234.1c-0.1,0.4-0.4,1-0.9,1
						c-5.6,0.3-8.2,0.4-8.2,0.4c-1.2,0.1-1.9,0.7-1.9,2c-0.1,3.7-0.1,5.6-0.1,5.6c-0.5-3.5-0.7-5.2-0.7-5.2
						c-2.8-0.1-3.9,0.6-3.9,1.9l0,12c0,0.7,0.7,2.1,2,2.2c2.7-0.1,3.7,0.2,3,0.7c-2,0.1-3,0.1-3,0.1c-0.6,0-1,0.4-1.1,1.2
						c0,2.9,0,4.5,0,5c0,1,1.1,1.3,1.9,1.3c2.1,0.1,2.9,0.1,2.9,0.1c0.1-4.2,0.4-4,0.5,0.7c0.1,1.7,0.7,2.6,1.8,2.7
						c4.9,0.1,7.4,0.2,7.4,0.2c0.4,0,1-0.6,2-1.6c0.2-0.3,0-0.4-0.4-0.3c-1.5,0-2.3,0-2.3,0c0.5,0.6,0.8,1,0.8,1
						c-0.1,0.3-0.4,0.4-0.7,0.3c-4.1-0.1-6.1-0.1-6.1-0.1c-1.6,0-1.8-1.5-1.8-2.8c0.7,0,0.9-0.4,1-1.1c0.1-3.4,0.1-5.2,0.1-5.2
						c-0.1-0.7-0.4-1.1-1-1.3c-0.6-0.2-0.5-0.6,0.1-0.7c0.5-0.2,0.8-0.6,0.9-1.3c-0.1-7.6-0.1-12-0.1-13.1c0-1.5-1-1.9-2.4-1.9
						c0-1.1,0.5-1.7,1.6-1.6c0,0,2.7-0.1,8.1-0.4c0.6-0.1,0.9-0.3,1-0.6c0.1-0.7,0.5-0.9,0.9-0.4c0.1,0.2,0.4,0.5,0.7,1
						c0.2,0.4,0.4,0.3,0.4-0.2c-0.3-0.8-0.8-1.6-1.5-2.4C328,233.2,327.6,233.6,327.5,234.1"/>
				</defs>
				<clipPath id="SVGID_00000115503943846372799990000018112600003083839415_">
					<use xlink:href="#SVGID_00000140728159044335938870000009781774776176264894_"  style="overflow:visible;"/>
				</clipPath>
				
					<linearGradient id="SVGID_00000096767880285032857220000004910019917413655197_" gradientUnits="userSpaceOnUse" x1="0" y1="600" x2="1" y2="600" gradientTransform="matrix(42.5271 -36.8519 -36.8517 -42.5268 22427.7363 25769.291)">
					<stop  offset="0" style="stop-color:#666666"/>
					<stop  offset="1" style="stop-color:#FEFEFE"/>
				</linearGradient>
				
					<polygon style="clip-path:url(#SVGID_00000115503943846372799990000018112600003083839415_);fill:url(#SVGID_00000096767880285032857220000004910019917413655197_);" points="
					295.6,247.2 322.3,224 346.4,251.9 319.7,275 				"/>
			</g>
			<g style="clip-path:url(#SVGID_00000029027014969498437910000009449310736245322909_);">
				<defs>
					<path id="SVGID_00000115514085478980776790000001185341253799495318_" d="M316.9,251.1c0,0-1,0.3-2.9,1c-0.5,0.3-1,0.1-1.3-0.8
						c0.1,1.2,0.6,1.8,1.4,1.6c2,0,3,0.1,3,0.1c0.1-1.6,0.1-2.4,0-2.4C317,250.6,317,250.8,316.9,251.1 M312.7,239.7
						c0,1.5,0,2.3,0,2.3c0.2-0.4,0.3-0.6,0.3-0.6c1.4,5.7,2.1,7,2.1,4c0,0,0-2.1-0.1-6.6C313.5,238.8,312.7,239,312.7,239.7
						 M317.4,240c0.6,0.2,0.9,0.7,1,1.5c0.2,3.5,0.3,3,0.2-1.7c0-0.7-0.4-1.1-1.2-1.2C317.4,239.5,317.4,240,317.4,240"/>
				</defs>
				<clipPath id="SVGID_00000016043253170545916750000011166749009992645512_">
					<use xlink:href="#SVGID_00000115514085478980776790000001185341253799495318_"  style="overflow:visible;"/>
				</clipPath>
				
					<linearGradient id="SVGID_00000096027075665245452320000010022793995990453889_" gradientUnits="userSpaceOnUse" x1="0" y1="600" x2="1" y2="600" gradientTransform="matrix(12.0929 -24.1471 -21.052 -10.5429 12944.458 6576.5625)">
					<stop  offset="0" style="stop-color:#B3B3B3"/>
					<stop  offset="1" style="stop-color:#FEFEFE"/>
				</linearGradient>
				
					<polygon style="clip-path:url(#SVGID_00000016043253170545916750000011166749009992645512_);fill:url(#SVGID_00000096027075665245452320000010022793995990453889_);" points="
					306.9,250.2 313.9,236.2 324.5,241.5 317.5,255.5 				"/>
			</g>
			<g style="clip-path:url(#SVGID_00000029027014969498437910000009449310736245322909_);">
				<defs>
					<rect id="SVGID_00000155824848953753261570000013086344250733816454_" width="600" height="600"/>
				</defs>
				<clipPath id="SVGID_00000101803623867188662380000014416821025092591016_">
					<use xlink:href="#SVGID_00000155824848953753261570000013086344250733816454_"  style="overflow:visible;"/>
				</clipPath>
				
					<path style="clip-path:url(#SVGID_00000101803623867188662380000014416821025092591016_);fill-rule:evenodd;clip-rule:evenodd;fill:#B2B2B2;" d="
					M316.9,260.5c0,0.5,0,0.9-0.1,1.1c0,0-0.5,0-1.5,0C315.2,261.6,315.8,261.2,316.9,260.5 M316.9,256.1c-0.1,3.2-0.2,4.1-0.2,2.7
					c0,0-0.9-0.7-2.7-2.1c0,0-0.1,0.5-0.4,1.4c0,0,0-0.6,0-1.7c0-0.6,0.2-0.9,0.8-1c0,0,0.7,0,2.1,0
					C316.8,255.5,317,255.7,316.9,256.1 M318.4,255.6c0.4,3.3,0.7,3.6,0.8,0.9C319.2,256,318.9,255.7,318.4,255.6"/>
				
					<path style="clip-path:url(#SVGID_00000101803623867188662380000014416821025092591016_);fill-rule:evenodd;clip-rule:evenodd;fill:#1A1A1A;" d="
					M334.7,231c24.2,0.4,36.3,0.6,36.3,0.6c-4-1.9-18.3-3.4-42.7-4.3c-2.4,0-2.8,0.4-0.9,0.8c2.3,0.3,4,1,5.1,2
					C333.2,230.6,334,230.9,334.7,231"/>
				
					<path style="clip-path:url(#SVGID_00000101803623867188662380000014416821025092591016_);fill-rule:evenodd;clip-rule:evenodd;fill:#FFFFFF;" d="
					M333.7,229.2c19.3,0.3,29.7,0.9,31.2,1.7c-3.7-0.2-13.4-0.4-29.1-0.7C335.1,230.2,334.4,229.8,333.7,229.2"/>
				
					<path style="clip-path:url(#SVGID_00000101803623867188662380000014416821025092591016_);fill-rule:evenodd;clip-rule:evenodd;fill:#CCCCCC;" d="
					M388.6,287.8c-3.1,0.6-9.4,0.6-15,0.5c-2-0.1-3.5-0.1-4.8-2c-1.3-1.9-1.3-4.9,1.4-5.4c3-0.6,9.3-0.1,13.1,0.8
					c2.3,0.6,3.5,1.3,5,3.3C389.2,286.3,389.7,287.6,388.6,287.8"/>
				
					<path style="clip-path:url(#SVGID_00000101803623867188662380000014416821025092591016_);fill-rule:evenodd;clip-rule:evenodd;fill:#FFFFFF;" d="
					M382.2,283.3c2.5,0.6,4.1,1.6,5,2.9c-2.4,0.3-7,0.3-10.6,0.3c-1,0-2,0-2.8,0c-1.1,0-2.1-0.2-2.8-0.6c-1.6-0.9-1.9-2.6-0.1-3.7
					c0.7-0.2,1.4-0.3,2.1-0.2c2.1,2.4,3.1,3.6,3.1,3.6c-0.7-1.6-1-2.4-1-2.4c-0.1-0.1,7.6-0.2,5.8,2.4c1.3-0.2,1.7-0.7,1.5-1.8
					C382.2,283.5,382.2,283.3,382.2,283.3"/>
				
					<path style="clip-path:url(#SVGID_00000101803623867188662380000014416821025092591016_);fill-rule:evenodd;clip-rule:evenodd;fill:#999999;" d="
					M414.6,298.6c-0.1,1-0.6,1.4-1.5,1.8c-1.5,0.6-6,1.8-13.5,3.7c-0.7,0.1-1.1-0.1-1.1-0.8c0,0,0-0.9,0-2.8c0-0.9,0.4-1.5,1.2-1.7
					c8-1.8,12.6-2.9,13.6-3.3c0.8-0.1,1.2,0.2,1.3,0.9C414.6,297.8,414.6,298.6,414.6,298.6 M394.8,307.2
					c-3.7,0.9-11.5,1.5-22.4,2.4c-1.3,0.1-2.1-0.4-2.4-1.4c0,0-1.1-3.6-3.5-10.8c-0.2-0.7,0-1.2,0.7-1.5c17.7-0.8,27.3-1.5,28.7-2
					c12.9-3,19.5-4.7,19.9-5.2c0.1-0.7,0.2-1.1,0.2-1.1c0.9,0.3,1.3,0.6,1.4,1c-0.5,6.8-0.8,10.2-0.8,10.2c0,1.1-1,2.1-3,3
					C408.7,303.7,403,305.7,394.8,307.2"/>
			</g>
			<g style="clip-path:url(#SVGID_00000029027014969498437910000009449310736245322909_);">
				<defs>
					<path id="SVGID_00000085943284524346159630000003927478933150813115_" d="M413.6,300.7c-1.7,0.6-6.4,1.9-14.2,3.9
						c-0.8,0.1-1.3-0.6-1.3-1.4c0-0.4,0-1.4-0.1-2.9c0-0.7,0.3-1.2,0.7-1.5c-0.9,0.3-1.3,0.9-1.3,1.8c0,2,0.1,3,0.1,3
						c0.3,1.2,0.8,1.7,1.8,1.6c7.7-2.2,12.4-3.5,14.3-4.1c1.7-0.5,1.8-2,1.6-3.7C415.1,298.7,414.9,300.3,413.6,300.7 M415.9,289.7
						c-8.3,2.3-14.5,3.8-18.6,4.7c-2.7,0.6-4.6,0.8-7.3,0.9c-7.1,0.4-14.5,0.7-22.2,1.1c-0.4,0.2-0.5,0.6-0.3,1.1
						c1.2,3.6,1.8,5.4,1.8,5.4c-0.5-3.4-0.8-5.1-0.8-5.1c13.1-0.4,21.4-0.7,25.1-1c0.4,2.4,0.6,3.6,0.6,3.6c0-2.4,0.1-3.5,0.1-3.5
						c12.7-3.2,20-5,22-5.5c0.2,2.8,0.3,3.4,0.4,1.9c0,0,0.1-1.3,0.3-4c0-0.2-0.2-0.4-0.3-0.5C416.5,289.1,416.3,289.4,415.9,289.7"
						/>
				</defs>
				<clipPath id="SVGID_00000173151282501577535080000008009106068172926886_">
					<use xlink:href="#SVGID_00000085943284524346159630000003927478933150813115_"  style="overflow:visible;"/>
				</clipPath>
				
					<linearGradient id="SVGID_00000102503890663578472730000009489588265190080394_" gradientUnits="userSpaceOnUse" x1="0" y1="600" x2="1" y2="600" gradientTransform="matrix(42.2324 -62.8082 -66.6805 -44.8362 40389.5547 27214.8809)">
					<stop  offset="0" style="stop-color:#CCCCCC"/>
					<stop  offset="1" style="stop-color:#FEFEFE"/>
				</linearGradient>
				
					<polygon style="clip-path:url(#SVGID_00000173151282501577535080000008009106068172926886_);fill:url(#SVGID_00000102503890663578472730000009489588265190080394_);" points="
					359.6,300.2 382.7,265.9 424.5,294 401.4,328.3 				"/>
			</g>
			<g style="clip-path:url(#SVGID_00000029027014969498437910000009449310736245322909_);">
				<defs>
					<rect id="SVGID_00000011710070263026289530000005248103097852640919_" width="600" height="600"/>
				</defs>
				<clipPath id="SVGID_00000017504147782623050220000016774642032782615682_">
					<use xlink:href="#SVGID_00000011710070263026289530000005248103097852640919_"  style="overflow:visible;"/>
				</clipPath>
				
					<path style="clip-path:url(#SVGID_00000017504147782623050220000016774642032782615682_);fill-rule:evenodd;clip-rule:evenodd;fill:#999999;" d="
					M415.2,282.9c0,1.3-0.4,2.1-1.2,2.4c-2.6,0.8-7.8,2.1-15.7,3.9c-0.8,0.1-1.4-0.6-1.7-2.1c-0.3-2.1-0.6-5.6-0.8-10.4
					c0-1,0.4-1.7,1.2-2c7.1-1.4,12.7-2.3,16.9-2.6c0.8,0.1,1.1,0.4,1.1,0.8C415.1,276.9,415.2,280.3,415.2,282.9 M416.2,269.8
					c0.2,2.6,0.3,7.3,0.3,14.2c0.2,1.8-0.9,3.1-2.5,3.5c-1.8,0.4-6.7,1.6-15.1,3.6c-3.3,0.8-4.4-2.3-4.6-4.9
					c-0.1-1.7-0.4-5.4-0.8-11.1c0-1.5,0.6-2.5,1.9-3c2.7-0.9,5.1-1.5,7.3-2c0.5-0.1,0.8,0.1,0.9,0.3c0.5,0.7,0.8,0.6,1.5,0.5
					c3.1-0.4,4.5-0.6,4.5-0.6c0.4-0.1,0.6-0.3,0.6-0.6c0-0.6,0.1-0.7,0.4-0.8c1.9-0.2,3.3-0.3,4.4-0.3
					C415.6,268.8,416.1,269.1,416.2,269.8"/>
			</g>
			<g style="clip-path:url(#SVGID_00000029027014969498437910000009449310736245322909_);">
				<defs>
					<path id="SVGID_00000146475893533866486750000010574240283118917043_" d="M243.6,297.4c13,1.3,19.5,1.9,19.5,1.9
						c0-5.5,0-8.3,0-8.3s-0.4,0.9-1.2,2.7c0,0-6.5-0.3-17.6-1.2c0,0-0.1-0.9-0.5-3.9C243.7,294.5,243.6,297.4,243.6,297.4"/>
				</defs>
				<clipPath id="SVGID_00000168801932564262870280000016681225590698028930_">
					<use xlink:href="#SVGID_00000146475893533866486750000010574240283118917043_"  style="overflow:visible;"/>
				</clipPath>
				
					<linearGradient id="SVGID_00000117655286206117080090000013425562517311975852_" gradientUnits="userSpaceOnUse" x1="0" y1="600" x2="1" y2="600" gradientTransform="matrix(1.6467 -20.5692 -25.3883 -2.0325 15486.0674 1517.0131)">
					<stop  offset="0" style="stop-color:#B3B3B3"/>
					<stop  offset="0.63" style="stop-color:#D8D8D8"/>
					<stop  offset="1" style="stop-color:#FEFEFE"/>
				</linearGradient>
				
					<polygon style="clip-path:url(#SVGID_00000168801932564262870280000016681225590698028930_);fill:url(#SVGID_00000117655286206117080090000013425562517311975852_);" points="
					242.8,299.2 243.7,287.1 263.9,288.7 263,300.9 				"/>
			</g>
			<g style="clip-path:url(#SVGID_00000029027014969498437910000009449310736245322909_);">
				<defs>
					<rect id="SVGID_00000163051381879098695440000012803497909832141983_" width="600" height="600"/>
				</defs>
				<clipPath id="SVGID_00000030457818474148872440000010120771691875286165_">
					<use xlink:href="#SVGID_00000163051381879098695440000012803497909832141983_"  style="overflow:visible;"/>
				</clipPath>
				
					<path style="clip-path:url(#SVGID_00000030457818474148872440000010120771691875286165_);fill-rule:evenodd;clip-rule:evenodd;fill:#1A1A1A;" d="
					M282.4,231.7c32.8-3,45.7-4.6,38.5-4.7c-9.3,0.4-21.6,1.6-36.6,3.2c-1.9,0.2-4.9,0.9-5.7,2.8C279.3,232.4,280.6,232,282.4,231.7
					"/>
				
					<path style="clip-path:url(#SVGID_00000030457818474148872440000010120771691875286165_);fill-rule:evenodd;clip-rule:evenodd;fill:#E5E5E5;" d="
					M415.4,271.4c0.2-0.9,0.3-1.3,0.3-1.3c0-0.6-0.4-0.9-1.4-0.9c0,0-1.1,0.1-3.3,0.3c-0.2,0-0.4,0.2-0.4,0.8
					c-0.1,0.3-0.4,0.4-1,0.5c0,0-1.8,0.3-5.3,0.8c-0.4,0.1-0.8,0-1-0.2c-0.2-0.4-0.5-0.6-0.8-0.6c-1.8,0.4-4,1-6.6,1.9
					c-1.1,0.5-1.7,1.3-1.8,2.4c0,0.6,0,0.9,0,0.9c0.2-0.4,0.3-0.6,0.3-0.6c0.4,0.2,0.6,0.3,0.6,0.3c0.1,3.7,0.2,5,0.3,3.7
					c0-2.4,0-3.5,0-3.5c0.1-0.8,0.6-1.3,1.4-1.6c6.9-1.2,12.5-2.1,16.7-2.7c1.2-0.1,1.9,0.4,2,1.6c0.3,6.3,0.4,6.2,0.4-0.4
					C415.8,271.9,415.7,271.5,415.4,271.4"/>
				
					<path style="clip-path:url(#SVGID_00000030457818474148872440000010120771691875286165_);fill-rule:evenodd;clip-rule:evenodd;fill:#666666;" d="
					M414,286.6c1-0.2,1.4-1,1.4-2.3c-0.2,0.8-0.7,1.3-1.3,1.5c0,0-5.1,1.3-15.2,3.8c-0.8,0.2-1.4-0.1-2-0.9c0.5,1.2,1.1,1.8,1.9,1.7
					C408.9,287.8,414,286.6,414,286.6"/>
				
					<path style="clip-path:url(#SVGID_00000030457818474148872440000010120771691875286165_);fill-rule:evenodd;clip-rule:evenodd;fill:#910505;" d="
					M298,288.1l-17.6-0.5c-1.6-0.1-2.3-1.9-3.1-4.4c0.8,0.9,0.9,1.3,1.9,1.3l20.2,0.6L298,288.1z M305.9,288.3l-7-0.2l1.9-2.9
					l4.6,0.1C305.6,286.6,305.8,287.6,305.9,288.3 M330.2,285.9c-0.4,0.4-0.4,0.7-1.6,3l-20.1-0.5c-0.3-0.7-0.5-1.7-0.6-3
					L330.2,285.9z"/>
				
					<path style="clip-path:url(#SVGID_00000030457818474148872440000010120771691875286165_);fill-rule:evenodd;clip-rule:evenodd;fill:#FFFFFF;" d="
					M390.6,272.7c0.1-0.9,0.6-1.7,1.5-2.4c-19.6-4.1-21.1-3.4-5.4,0.3C388.4,271,390.1,271.3,390.6,272.7"/>
				
					<path style="clip-path:url(#SVGID_00000030457818474148872440000010120771691875286165_);fill-rule:evenodd;clip-rule:evenodd;fill:#FFFFFF;" d="
					M348.1,266.8c0.1-0.2-1.2-0.6-1.1-0.7c1.2-1.4,4.1-2.6,8.6-3.6c-6.5,1.1-10,2.4-10.6,4C346.2,266.6,348.1,266.8,348.1,266.8"/>
				
					<path style="clip-path:url(#SVGID_00000030457818474148872440000010120771691875286165_);fill-rule:evenodd;clip-rule:evenodd;fill:#FFFFFF;" d="
					M366.4,278.4c-0.6,0.3-1.1,1.1-1.5,1.6c-4.6-3.4-11.1-4.6-19.4-2.8C354.5,274.7,361.6,275.5,366.4,278.4"/>
				
					<path style="clip-path:url(#SVGID_00000030457818474148872440000010120771691875286165_);fill-rule:evenodd;clip-rule:evenodd;fill:#666666;" d="
					M330.6,258.8c0.5,0,1-0.1,1.5-0.1c-0.4,1-1,1.4-2,1.3c0,0-3-0.3-8.9-0.9c0-0.8,0-1.2,0-1.2C327.4,258.4,330.6,258.8,330.6,258.8
					 M295.6,259.9c1.6,0.1,2.6-0.1,3.2-0.5c-0.4,1.1-1.5,1.6-3.5,1.4c0,0-3.6-0.5-10.9-1.4c-1.8-0.5-2.7-1.8-2.8-3.7
					c0,0.6,0-3.5,0-12.2c0-0.9,0.5-1.6,1.6-2c-0.4,0.5-0.6,0.9-0.7,1.3c0,8.4,0,12.6,0,12.6c0,1.7,0.7,2.8,2.2,3.1
					C292,259.4,295.6,259.9,295.6,259.9"/>
				
					<path style="clip-path:url(#SVGID_00000030457818474148872440000010120771691875286165_);fill-rule:evenodd;clip-rule:evenodd;fill:#FFFFFF;" d="
					M346.1,236.2c4.2-0.6,5.7-0.8,5.7-0.8s-4.8,0-14.3,0c0.5,0.2,0.9,0.4,1.1,0.7c5.9,15.1,8.8,22.4,8.8,22.4
					c-1.1,0.4-1.9,0.7-2.5,0.3c0.8,0.9,1.8,1.2,2.8,0.9c4.4-1.1,9.2-1.9,14.3-2.3c-4.5-0.4-5.4-0.5-5.6-0.5
					C352,247.3,348.1,240.3,346.1,236.2"/>
				
					<path style="clip-path:url(#SVGID_00000030457818474148872440000010120771691875286165_);fill-rule:evenodd;clip-rule:evenodd;fill:#4D4D4D;" d="
					M365.3,254.3c2.6-1.8,5.5-2.5,8.5-2.2c-1.1-4.7-2.4-8.9-3.8-13.2c-0.1-0.7-0.5-1.2-1.4-1.7c0,0-2.2,0-7.5,0
					c-1.9,0-3.2,0.1-3.1,2.1c0.2,6.1,0.2,9.6,0.4,11.8c0.1,1.6-0.1,2.5,1.1,2.8C360.6,254.1,362.8,254.3,365.3,254.3"/>
				
					<path style="clip-path:url(#SVGID_00000030457818474148872440000010120771691875286165_);fill-rule:evenodd;clip-rule:evenodd;fill:#999999;" d="
					M298,292c0,0.7,0,1.1,0,1.1s-6-0.2-18.1-0.7c0,0,0-0.4,0.1-1.2l4.1-1.3c11.8,0.4,17.7,0.6,17.7,0.6C299.2,291.5,298,292,298,292
					"/>
				
					<path style="clip-path:url(#SVGID_00000030457818474148872440000010120771691875286165_);fill-rule:evenodd;clip-rule:evenodd;fill:#999999;" d="
					M323.4,293.5c0,0.8,0,1.3,0,1.3s-6.8-0.2-21.8-0.8l0-1.1l4.3-1.8c14.7,0.5,22.1,0.8,22.1,0.8C324.9,293,323.4,293.5,323.4,293.5
					"/>
				
					<path style="clip-path:url(#SVGID_00000030457818474148872440000010120771691875286165_);fill-rule:evenodd;clip-rule:evenodd;fill:#999999;" d="
					M275.9,305.3c0,0,0-0.4,0.1-1.2c0,0,1.4-0.4,4.1-1.3c6.5,0.1,13,0.4,19.5,0.7c-2.5,0.9-3.7,1.4-3.7,1.4c0,0.7,0,1.1,0,1.1
					C289.1,305.8,282.5,305.5,275.9,305.3"/>
				
					<polygon style="clip-path:url(#SVGID_00000030457818474148872440000010120771691875286165_);fill-rule:evenodd;clip-rule:evenodd;fill:#999999;" points="
					299,309.1 299.1,308 302.9,306.2 327.4,307.5 323,309.2 322.9,310.4 				"/>
			</g>
			<g style="clip-path:url(#SVGID_00000029027014969498437910000009449310736245322909_);">
				<defs>
					<path id="SVGID_00000142167670539457259370000006439242174270331327_" d="M349,319.4c-0.7,0-2.3-0.3-2.7-0.7
						c0.4-0.3,0.9-0.6,0.8-1.7c-0.1-0.6-0.7-0.6-1.5-1.3c0.8,0.4,2.9,1.6,5.4,0.7c-0.3,0.4-0.5,0.4-0.3,1.4c0.2,0.7,0.7,1,1.3,1
						c-0.7,0.4-1.8,0.6-2.8,0.6C349.2,319.4,349.1,319.4,349,319.4 M351.2,317.2c0.2-0.7,2.3-2.3,2.7-2c0.1,0.1,0.5,0.6,0.5,1
						c0,0.4-1.1,1.3-1.4,1.6c-0.4,0.3-0.7,0.4-1,0.4C351.4,318.1,351.1,317.6,351.2,317.2 M345,317.5c-0.5-0.3-1.4-1.1-1.6-1.6
						c-0.2-0.5,0.1-1,0.5-1.1c0.3,0,2.5,2,2.6,2.1c0.2,0.4-0.3,0.9-0.6,1c0,0,0,0,0,0C345.5,317.9,345.2,317.6,345,317.5
						 M340.5,311.1c0.2,0.8,0.5,0.6,0.9,0.4c0.2-0.2,0.5-0.3,0.6-0.1c0.5,0.9,1.4,2.3,2,3c-0.8,0-1.2,0.6-1.1,1.5
						C342.2,315.3,340.5,312.1,340.5,311.1 M357,311.3c0.6-0.1,0.8-0.9,0.9-1.6c0,3.7-2.2,6.7-4,8.2c0.7-0.8,1.4-1.8,0.6-2.8
						c-0.3-0.4-0.7-0.6-1.1-0.4c0.2-0.3,0.4-0.5,0.6-0.9c0.7-1.1,0.9-2,1.3-3.4c0.2,0.4,0.3,0.5,0.6,0.7c0.2,0.1,0.6,0.2,0.8,0.2
						C356.9,311.3,357,311.3,357,311.3 M347.6,308.7c0.4-0.2,0.6-0.8,2.2-0.6c0.2,0.9-0.5,3-1.9,3.1c-0.8,0-1.3-0.3-1.7-0.8
						c-0.3-0.4-0.7-1.1-0.8-1.9c0.4,0.2,0.9,0.4,1.3,0.4C347,309,347.3,308.9,347.6,308.7 M343.5,309.3c-0.2,0-0.8-0.1-0.6-0.4
						c0.1-0.1,0.6-0.3,0.7-0.3c0.8-0.5-0.2-1-0.4-1.3c1.1,0.1,1,0.8,1.2,1.8c0.5-0.2,0.8,0.3,0.9,0.8c0.2,0.4,0.5,1,0.7,1.2
						c0.8,0.9,1.6,1.1,2.6,1.1c0,0.5-1.1,0.8-0.3,1.5c1.6,1.4,1-1.5,0.9-1.6c0.4-0.1,0.8-0.5,0.9-0.5c0.2,0.1,0.1,0.3,0.6,0.6
						c0.4,0.3,0.6,0.1,0.8-0.2c0.3-0.6-0.1-1.1-1-1c0.5-0.7,0.7-1.3,0.7-2.6c0.4,0.4,1.2,0.8,1.3-0.1c0-0.6,0.3-1.2,0.9,0
						c0,2.6-0.9,4.4-2.1,5.4c-0.7,0.6-1.5,0.9-2.6,1c-1,0-2.2-0.1-2.7-0.8c-0.1-0.1,0.3-0.1,0.5-0.2c1.1-0.7-0.3-1.1-0.7-0.9
						c-0.3,0.2-0.3,0.4-0.5,0.7c-0.8-0.2-1.5-1.1-1.7-2c0.5,0.4,1,0,1-0.3c0-0.3-0.3-0.6-1.4-0.4C343.2,310,343.3,309.8,343.5,309.3
						 M355.7,308.2c0-0.5-0.1-1.2,0-1.6c0.2-0.4,0.6-0.6,1-0.4c0.5,0.2,0.6,0.4,0.7,1c0.3,0.9,0.2,2.2-0.1,3
						c-0.2,0.5-0.4,0.7-0.9,0.7c0,0,0,0,0,0C355.5,310.8,355.8,309.5,355.7,308.2 M340.7,310.5c-0.3-0.1-0.3-0.7-0.4-1.1
						c-0.1-0.5-0.1-0.9-0.1-1.4c0-0.7-0.2-2.4,0.6-2.1c0.5,0.2,0.4,0.4,0.5,1.1c0,0.5,0,1,0.1,1.5c0,0.7,0.2,2.2-0.4,2.2
						C340.9,310.5,340.8,310.5,340.7,310.5 M347,305.2c0.4,0,0.7-0.3,1.5,0c2.3,0.8,2.8,5,0.6,6.3c-0.9,0.5-2.2,0.3-2.8-0.4
						c0.4,0.2,0.6,0.4,1.2,0.5c1.3,0.1,2.4-1,2.6-2.5c0.1-1.1-0.2-2.3-0.7-2.9c-0.3-0.3-0.5-0.6-1-0.8c-0.5-0.2-0.7-0.2-1-0.2
						c-0.1,0-0.2,0-0.3,0C347.1,305.2,347.1,305.2,347,305.2 M344.1,304.9c-0.1-0.1-0.2-0.2-0.2-0.4c0.6-0.7,1.3,1,1,1.5
						c-0.4,0.7-1.8,0-1.4-0.8c0.1,0,0.2,0,0.4,0.1c0.2,0,0.3,0.1,0.4,0.1C344.5,305.3,344.5,305.2,344.1,304.9 M351.4,305.3
						c0-0.4-0.5-0.7-0.5-0.9c0.2-0.4,0.8-0.1,1.1,0.2c0.4,0.5,0.2,1.3-0.3,1.8c-0.6,0.5-2.1-0.6-1.1-0.9c0.1,0,0.2,0,0.3,0
						c0,0,0,0,0.1,0C351.2,305.4,351.3,305.4,351.4,305.3 M343.8,303c-1.3,1.7-1.8,4.5-1.4,7.2C341.9,308,341.7,304.7,343.8,303
						 M346.4,303.7c0-0.5-0.7-1.4-0.1-1.4c0.3,0,0.7,0.4,0.8,0.6c0.1,0.4,0.3,1.6-0.6,1.5c-0.5,0-1.1-0.3-0.9-0.9
						c0.3-0.1,0.4,0,0.4,0.1c0.1,0.1,0.1,0.2,0.2,0.2C346.2,303.9,346.3,303.8,346.4,303.7 M349.1,303.3c-0.1-0.5-0.3-0.2-0.3-0.7
						c1-0.9,1.5,1.5,0.4,1.7c-0.2,0-0.3,0-0.4,0C347.7,304.2,349,303.3,349.1,303.3 M348.7,300.3c1.4,0.1,2.6,0.7,3.5,1.5
						c1.6,1.4,3.2,4,2.9,7.6c-0.4,5.3-5.1,8.6-9.4,5.8c-0.3-0.2-1.2-0.9-1.4-1.3c4.1,3.2,9.4,1.8,10-4.7c0.5-5.4-4-9.8-8.5-8.2
						c-0.3,0.1-0.5,0.3-0.8,0.3C345.7,300.6,347.6,300.2,348.7,300.3 M343.2,301.5c-0.3-0.2-0.4-0.7-0.1-1.1
						c0.4-0.5,1.2-1.1,1.7-1.4c0.3-0.2,0.6-0.5,1-0.3c0.4,0.2,0.5,0.8,0.2,1.1c-0.1,0.1-1.5,1-1.9,1.3c-0.2,0.1-0.5,0.5-0.8,0.5
						C343.3,301.6,343.2,301.6,343.2,301.5 M353.1,301.7l-1-0.8c-0.3-0.3-0.7-0.5-1-0.7c-0.4-0.3-0.8-0.4-0.6-1.2
						c0.1-0.5,0.6-0.6,1.1-0.5c0.6,0.1,3,1.7,2.5,2.7c0,0.1-0.3,0.4-0.4,0.5c-0.1,0.1-0.2,0.1-0.3,0.1
						C353.3,301.8,353.2,301.8,353.1,301.7 M341.1,314.4c-1.8-3.2-2.1-7.2-1-10.7c0.5-1.7,1.3-2.7,2.3-3.9c2.8-3.2,7.7-3.8,11.6-0.6
						c0.1,0.1,0.3,0.2,0.4,0.4c0.7,0.6,1.2,1.3,1.8,2.2c0.3,0.4,1,1.7,1.1,2.2c-0.1-0.2-0.3-0.7-0.5-1c-0.2-0.4-0.4-0.7-0.6-1
						c-2.9-4.4-7.8-5.9-11.9-3.2c-3.1,2-4.8,6.3-4.4,10.6c0.2,2.8,1.2,5,2.7,6.9l1.5,1.6C343.1,317.4,341.7,315.5,341.1,314.4
						 M339,307.3c-0.2,6.7,4.1,12.3,9.4,12.9c5.8,0.7,10.1-4.6,10.3-10.8c0.2-6.7-4.1-12.3-9.4-12.9c-0.3,0-0.6-0.1-0.9-0.1
						C343,296.5,339.2,301.5,339,307.3"/>
				</defs>
				<clipPath id="SVGID_00000096767643785460204090000015250112250481291697_">
					<use xlink:href="#SVGID_00000142167670539457259370000006439242174270331327_"  style="overflow:visible;"/>
				</clipPath>
				
					<linearGradient id="SVGID_00000156556881103016300490000006090295776882288512_" gradientUnits="userSpaceOnUse" x1="0" y1="599.9999" x2="1" y2="599.9999" gradientTransform="matrix(0.3874 -26.4491 -14.2158 -0.2082 8878.2393 435.0171)">
					<stop  offset="0" style="stop-color:#B3B3B3"/>
					<stop  offset="1" style="stop-color:#FEFEFE"/>
				</linearGradient>
				
					<polygon style="clip-path:url(#SVGID_00000096767643785460204090000015250112250481291697_);fill:url(#SVGID_00000156556881103016300490000006090295776882288512_);" points="
					338.4,320.9 338.8,295.7 359.2,296 358.8,321.2 				"/>
			</g>
			<g style="clip-path:url(#SVGID_00000029027014969498437910000009449310736245322909_);">
				<defs>
					<rect id="SVGID_00000165223440937163462090000017584471459323310977_" width="600" height="600"/>
				</defs>
				<clipPath id="SVGID_00000078029821226475929500000012423679144494133647_">
					<use xlink:href="#SVGID_00000165223440937163462090000017584471459323310977_"  style="overflow:visible;"/>
				</clipPath>
				
					<path style="clip-path:url(#SVGID_00000078029821226475929500000012423679144494133647_);fill-rule:evenodd;clip-rule:evenodd;fill:#E5E5E5;" d="
					M324.8,292.3c-1.9,0.7-2.8,1.1-2.8,1.1s-6.3-0.2-18.9-0.6c0,0,1-0.4,3.1-1.1C318.6,292.1,324.8,292.3,324.8,292.3 M294.6,304.7
					c-11.3-0.4-17-0.6-17-0.6c1.6-0.5,2.4-0.7,2.4-0.7c11,0.3,16.4,0.5,16.4,0.5C295.1,304.5,294.6,304.7,294.6,304.7 M324.4,307.9
					c-2.1,1-2.9,1.5-2.4,1.4c0,0-7.1-0.4-21.4-1.2c0,0,0.9-0.4,2.7-1.2C317.4,307.5,324.4,307.9,324.4,307.9 M298.9,291
					c-1.2,0.6-1.8,0.9-1.8,0.9s-5.3-0.2-15.8-0.7c0,0,1-0.3,2.9-0.8C294,290.8,298.9,291,298.9,291"/>
				
					<path style="clip-path:url(#SVGID_00000078029821226475929500000012423679144494133647_);fill-rule:evenodd;clip-rule:evenodd;fill:#4D4D4D;" d="
					M298.2,301.8l-15.3-0.7c0,0,0-1.9,0.1-5.6c0,0-0.8-0.4-2.4-1.1l17.8,0.7L298.2,301.8z"/>
				
					<path style="clip-path:url(#SVGID_00000078029821226475929500000012423679144494133647_);fill-rule:evenodd;clip-rule:evenodd;fill:#4D4D4D;" d="
					M323.4,305l-18.6-0.9c0,0,0-2.3,0.1-6.8c0,0-1-0.5-2.9-1.4l21.6,0.8L323.4,305z"/>
			</g>
			<g style="clip-path:url(#SVGID_00000029027014969498437910000009449310736245322909_);">
				<defs>
					<path id="SVGID_00000054974442280653161500000001446502198919315614_" d="M191.9,272.8C191.8,272.8,191.8,272.8,191.9,272.8
						 M209.5,254.8c-1.7,1.2-2.2,2.1-1.7,2.6c2.6,0.2,3.9,0.2,3.9,0.2c0.7,0,1,0,0.9,0.2c-0.1,0.3-0.2,0.5-0.2,0.5
						c0.2,1.1,0.9,1.3,2.1,0.8c0,0-0.6-1.2-1.7-3.7c-0.3-0.4-1-0.6-1.9-0.6C210.5,254.7,210,254.7,209.5,254.8 M243.2,253.2
						c1.4,1.5,2.1,2.2,2.1,2.2c0.2,0,0.4,0.1,0.8,0.1c-0.2-0.7-0.5-1.4-0.9-2.1c0-0.1-0.4-0.2-1-0.2
						C243.8,253.2,243.5,253.2,243.2,253.2 M245.8,268.6c-0.2-0.5,0.3-0.8,1.4-0.8c0.6,0.1,0.7,0.3,0.4,0.6c-0.3,0.4-0.3,1.4,0.2,3
						c-0.1,0-0.1,0-0.2,0C246.8,271.4,246.2,270.5,245.8,268.6 M249.4,269.1c-0.2-0.7,0-1.1,0.8-1.2c6.6-0.4,11.5-0.6,13.3-0.8
						c1.1-0.1,0.9,0.9,0.7,2c-0.3,1.4-1,1.7-1.9,2c-0.6,0.2-4,0.5-10.3,0.8c-0.1,0-0.1,0-0.2,0C250.6,271.9,249.9,271,249.4,269.1
						 M265.3,269.6c0-0.7,0-1.5,0-2.5c0-0.2,0.3-0.4,0.9-0.4c0,0.2,0,0.4-0.1,0.8c-0.4,1.6-0.7,2.4-0.8,2.4
						C265.3,269.8,265.3,269.7,265.3,269.6 M234.4,262.6c-0.5-0.8-0.3-1.3,0.6-1.4c3.4-0.2,6.9,0.1,10.2,0.7c2.4,1.2,3.4,2,3.1,2.5
						c-0.2,0.5-0.7,0.8-1.7,0.8c-1.4,0.1-4.3,0.1-8.8,0c0,0-0.1,0-0.1,0C236.9,265.1,235.8,264.3,234.4,262.6 M201.9,261
						c-0.1-0.4,0.1-0.7,0.5-0.8c1,0.1,1.5,0.1,1.3,0.1c0.3,0.2,0.5,0.4,0.5,0.7c0.1,0.5-0.5,0.6-1.8,0.5c0,0,0,0,0,0
						C202.1,261.5,202,261.4,201.9,261 M202.1,269.1c-1.1-3.4-2.8-8-1.9-10.8c-0.1,2.8,0.9,6.6,2.9,12.1c1.7,0.1,6.2,0.1,9.7,0.3
						c3.8,0.2,6.8,0.6,8.3,1.7c-1.4-0.1-6-0.6-17.8-0.8c0,0-0.1,0.5-0.4,1.7C203,272.1,202.7,271,202.1,269.1 M215.5,252
						c-0.3-1.2-0.2-1.9,0.4-2.1c5.6-1,12.2-1.2,20-0.6c0.5,0,0.9,0.2,1.3,0.6c4,4.4,5.8,6.3,5.8,6.3c-5.7-0.2-14.3,0.1-25.7,1
						C217.2,257.2,216.6,255.5,215.5,252 M215.1,249.1c-1,0.2-1.4,1.3-1.1,3.3c1,3.6,1.4,5.2,1.2,4.8c-0.2,0.4-0.1,0.5-0.5,0.5
						c0.5,0.9,0.7,1.5,0.7,1.5c0.1,0.7-0.7,0.9-2,1c-0.8-0.1-1.3-0.4-1.4-1.2c-0.2-0.4-0.3-0.7-0.3-0.7c-2.8-0.1-4.1-0.1-4.1-0.1
						c-0.5-0.1-0.7-0.4-0.7-0.8c0,0-4.4,0-13.2,0c-1.8,1.2-2.9,2.3-3.3,3c-0.1,2.1-0.1,3.1-0.1,3.1c-0.1,0.3-0.3,0.5-0.7,0.6
						c0,5.4,0.8,8.2,2.4,8.6c0,0,0.1-0.1,0.3-0.2c-0.7-6,0.7-8.8,2.8-9.1c2.5-0.3,5.4,3.4,5.6,10.1c0.1,0.5,0.4,0.7,0.9,0.7
						c14.7,0.3,21.9,0.4,21.9,0.4c-1-3.6-1.6-12.6,3.9-12.7c5.1-0.1,7,8.2,6.9,11.8c0,1.5,2,1.2,3.3,1.3c12.7-0.4,21.6-0.9,26.7-1.7
						c0.9-0.3,1.4-0.6,1.6-1c1.6-4.3,2.3-6.4,2.3-6.4c0-0.6-0.1-1.3-0.4-1.9c-1.4,0-2.4-0.1-2.6-0.3c-0.4-0.7-0.6-1-0.8-1.4
						c-0.5-0.9-0.3-1.4,0-2.6c-1.5-1.9-7.9-3.1-19.4-3.6c-4-3.8-6.4-6.1-7.3-6.9c-0.5-0.5-1-0.7-1.9-0.7c-3.9-0.2-7.3-0.3-10.2-0.3
						C220.6,248.2,217.1,248.5,215.1,249.1"/>
				</defs>
				<clipPath id="SVGID_00000154388173737378456630000005691891154678155184_">
					<use xlink:href="#SVGID_00000054974442280653161500000001446502198919315614_"  style="overflow:visible;"/>
				</clipPath>
				
					<linearGradient id="SVGID_00000005267045495317145570000002852945973788296620_" gradientUnits="userSpaceOnUse" x1="0" y1="599.9999" x2="1" y2="599.9999" gradientTransform="matrix(0.7498 -35.1785 -95.1246 -2.0275 57303.1914 1493.5601)">
					<stop  offset="0" style="stop-color:#999999"/>
					<stop  offset="0.37" style="stop-color:#CBCBCB"/>
					<stop  offset="1" style="stop-color:#FEFEFE"/>
				</linearGradient>
				
					<polygon style="clip-path:url(#SVGID_00000154388173737378456630000005691891154678155184_);fill:url(#SVGID_00000005267045495317145570000002852945973788296620_);" points="
					188.9,275.2 189.5,246.6 268.7,248.3 268,276.9 				"/>
			</g>
			<g style="clip-path:url(#SVGID_00000029027014969498437910000009449310736245322909_);">
				<defs>
					<rect id="SVGID_00000178915429920618342750000002349829848008807083_" width="600" height="600"/>
				</defs>
				<clipPath id="SVGID_00000055707686690072847280000001070926852731829130_">
					<use xlink:href="#SVGID_00000178915429920618342750000002349829848008807083_"  style="overflow:visible;"/>
				</clipPath>
				
					<path style="clip-path:url(#SVGID_00000055707686690072847280000001070926852731829130_);fill-rule:evenodd;clip-rule:evenodd;fill:#FFFFFF;" d="
					M265.1,260.2c0.9,0.6,1.6,1.6,2.2,2.8c-0.8,0.1-1.4,0-1.8-0.1c0,0-0.2-0.4-0.8-1.2C264.6,261.4,264.7,260.9,265.1,260.2"/>
				
					<path style="clip-path:url(#SVGID_00000055707686690072847280000001070926852731829130_);fill-rule:evenodd;clip-rule:evenodd;fill:#FFFFFF;" d="
					M241.7,263c2.8,0.8,4.2,1.1,4.2,1.1c-1.8,0.2-4.5,0.2-8.3,0c-1.5-0.9-2.1-1.6-1.9-2.2c2.5,0.5,3.8,0.7,3.8,0.7
					c-0.2,0.8,0.2,0.9,1.3,0.5C241.2,263,241.5,262.9,241.7,263"/>
				
					<path style="clip-path:url(#SVGID_00000055707686690072847280000001070926852731829130_);fill-rule:evenodd;clip-rule:evenodd;fill:#FFFFFF;" d="
					M218.1,256.2c8.4-0.7,13.9-1.1,17.8-0.9c0,0-1.6-1.6-5.4-5.3c0,0,0.7-0.1,2-0.2c-4.3-0.3-9.4-0.1-15.5,0.6
					c-0.5,0.1-0.7,0.4-0.6,0.9C217.5,254.5,218.1,256.2,218.1,256.2"/>
				
					<path style="clip-path:url(#SVGID_00000055707686690072847280000001070926852731829130_);fill-rule:evenodd;clip-rule:evenodd;fill:#FFFFFF;" d="
					M212.6,256.1c0.4,1,0.3,1.2-0.1,0.5c0,0-1.2,0-3.6-0.1c-0.2-0.1,0.1-0.4,0.9-1.1C211.6,255.3,212.5,255.6,212.6,256.1"/>
				
					<path style="clip-path:url(#SVGID_00000055707686690072847280000001070926852731829130_);fill-rule:evenodd;clip-rule:evenodd;fill:#808080;" d="
					M199.1,256.5c3.3,0,5,0,5,0c-0.1-0.3-0.1-0.8,0-1.5c0,0-1.1,0-3.4,0.1C200.3,255.1,199.8,255.6,199.1,256.5"/>
				
					<path style="clip-path:url(#SVGID_00000055707686690072847280000001070926852731829130_);fill-rule:evenodd;clip-rule:evenodd;fill:#666666;" d="
					M206.4,256.4c0.5-3.4,2.4-4.7,5-3.7c-3-2.1-6.3,0-6.1,3.7C206,256.4,206.4,256.4,206.4,256.4"/>
			</g>
			<g style="clip-path:url(#SVGID_00000029027014969498437910000009449310736245322909_);">
				<defs>
					<path id="SVGID_00000078011468407222805950000012029741547645058739_" d="M190.1,265.2C190.1,265.3,190.1,265.3,190.1,265.2
						C190.1,265.2,190.1,265.2,190.1,265.2 M233.8,262.6c-0.5-0.6-0.3-1.8,0.8-1.9c3.8-0.2,8.5,0.1,11,0.8c1.8,0.9,2.8,1.5,3.2,2.1
						c0.8,1-0.6,2.1-1.6,2.1c-3.6,0.1-6.7,0-9.4-0.1c0,0-0.1,0-0.1,0C236.7,265.6,235.4,264.6,233.8,262.6 M215.6,258.2
						c0,0,0.1,0.4,0.3,1.1c0.2,0.9-0.7,1.3-2.7,1.2c-0.8,0-1.4-0.5-1.8-1.7c0,0-1.3-0.1-4-0.2c-0.3,0-0.6-0.3-1-0.7
						c0,0-4.2,0-12.5,0.1c-1,0.6-2,1.4-2.9,2.5c1.3,1,1.8,1.6,1.7,1.7c-0.5,1.2-0.8,1.7-0.8,1.7c-1.1,0.2-1.7,0.4-1.8,0.5
						c0,0.4,0,0.6,0,0.6c1.1,0.1,1.7,0.2,1.7,0.2c-0.1,0.5-0.1,0.9-0.1,1.3c0.7-2.5,1.7-3.8,3.2-4c1.8,0,3.5,1.6,5.1,4.8
						c-0.8-2.6-2.2-4.4-4.4-5.5c0.7-1.2,1.4-1.7,2-1.6c2.3,0.1,3.5,0.1,3.5,0.1c0,0.4,0.1,0.9,0.4,1.1c-0.4-1.9,0.9-1.8,2.2-1.6
						c0.7,0.1,1.1,0.5,1.2,1.2c9.2,0.2,13.9,0.2,13.9,0.2c1.8,0.1,3.1,0.4,3.9,1c-0.4,1.7-0.6,3.2-0.5,4.6c0.7-3.8,2.2-5.7,4.5-5.9
						c3.8-0.2,6.4,2.8,7.8,8.9c-0.1-1.4-0.2-2.3-0.2-2.7c-0.1-1,1.2-0.9,1.9-0.8c5.9,0.1,8.8,0.2,8.8,0.2c-0.4,0.6-0.5,1.1-0.2,1.5
						c0.3,0.8,0.5,1.2,0.5,1.2c-0.1-1.2,0-1.9,0.3-2c0.9-0.2,1.7-0.3,2.5-0.2c0.2-0.7,0.5-1,1-1.1c11.7-0.6,17.5-0.9,17.5-0.9
						c0.4,0,0.6,0.3,0.7,0.7c0.3-0.4,0.3-0.8,0-1.4c-1.6,0-2.5-0.3-2.8-0.8c-0.9-1.7-1.4-3-1.3-3.7c-2.1-1.3-6.3-2.2-12.6-2.5
						c7,1.5,11.1,3.3,12.3,5.5c-3.6-0.8-8-1.5-13.2-2.3c-3.7-0.6-11.2-1.4-22.7-2.3c1.3-0.7,5.8-1.2,13.5-1.5
						c-1-0.1-2.1-0.1-3.4-0.1C232,256.9,224.9,257.3,215.6,258.2"/>
				</defs>
				<clipPath id="SVGID_00000040544403526828993930000004258338381642214045_">
					<use xlink:href="#SVGID_00000078011468407222805950000012029741547645058739_"  style="overflow:visible;"/>
				</clipPath>
				
					<linearGradient id="SVGID_00000070116222659374263840000010599939843891839933_" gradientUnits="userSpaceOnUse" x1="0" y1="600.0001" x2="1" y2="600.0001" gradientTransform="matrix(-1.0364 18.3985 48.6742 2.742 -28974.8867 -1397.0178)">
					<stop  offset="0" style="stop-color:#CCCCCC"/>
					<stop  offset="1" style="stop-color:#FEFEFE"/>
				</linearGradient>
				
					<polygon style="clip-path:url(#SVGID_00000040544403526828993930000004258338381642214045_);fill:url(#SVGID_00000070116222659374263840000010599939843891839933_);" points="
					268.2,256.9 267.2,274.4 189.4,270 190.4,252.5 				"/>
			</g>
			<g style="clip-path:url(#SVGID_00000029027014969498437910000009449310736245322909_);">
				<defs>
					<rect id="SVGID_00000063605823586009687990000014685967756012319128_" width="600" height="600"/>
				</defs>
				<clipPath id="SVGID_00000015326921967441932250000006016689399375133073_">
					<use xlink:href="#SVGID_00000063605823586009687990000014685967756012319128_"  style="overflow:visible;"/>
				</clipPath>
				
					<path style="clip-path:url(#SVGID_00000015326921967441932250000006016689399375133073_);fill-rule:evenodd;clip-rule:evenodd;fill:#CCCCCC;" d="
					M249.1,273.2c10.3-0.4,15.6-1,16.1-1.8c0.2-0.2,0-0.3-0.6-0.3c0,0,0-0.4,0-1.3c-0.1,0.8-0.6,1.4-1.5,1.7
					c-2.9,0.5-7.2,0.8-12.9,1c-1.6-0.1-2.7-0.3-3.4-0.8C247.6,272.6,248.4,273.1,249.1,273.2 M235.2,274c2.1,0,5.4,0,9.7-0.2
					c-0.5-0.9-2.4-1.3-3.4-1.3c-0.9,0-2.5-0.1-4.5-0.1C235.1,272.5,235.4,272.5,235.2,274"/>
				
					<path style="clip-path:url(#SVGID_00000015326921967441932250000006016689399375133073_);fill-rule:evenodd;clip-rule:evenodd;fill:#808080;" d="
					M262.4,268.2c0,0.8-0.2,1.2-0.4,1.4c-0.6,0.2-4.4,0.5-11.2,1c0,0.1,0.2,0.3,0.6,0.5c5.9-0.2,9.7-0.6,11.3-1
					c0.5-0.5,0.7-1.3,0.8-2.4C262.8,267.7,262.5,267.9,262.4,268.2"/>
				
					<path style="clip-path:url(#SVGID_00000015326921967441932250000006016689399375133073_);fill-rule:evenodd;clip-rule:evenodd;fill:#FFFFFF;" d="
					M226.8,266.8l0.2,1.7c0.1,0.6-0.1,0.9-0.4,0.7l-0.9-0.7C225.9,267.8,226.3,267.2,226.8,266.8 M230,267.5l-1.2,1.4
					c-0.2,0.2-0.4,0.1-0.4-0.3l-0.1-2.3C228.9,266.5,229.5,266.9,230,267.5 M231,272.2l-1.4-1c-0.2-0.2-0.2-0.5-0.1-0.7
					c0,0,0.4-0.4,1.3-1.3c0.2,0.6,0.3,1.3,0.3,2C231,271.6,231,271.9,231,272.2 M228.8,275.8l-0.2-2.3c0-0.4,0.1-0.6,0.4-0.5
					l1.3,1.3C229.9,275,229.4,275.5,228.8,275.8 M226,274.5l0.8-1.1c0.4-0.2,0.6,0,0.6,0.5l0.1,2C226.9,275.6,226.4,275.2,226,274.5
					 M225.2,270.4l0.9,0.6c0.3,0.3,0.3,0.6,0,0.9l-0.8,0.8c-0.1-0.5-0.2-1-0.2-1.6C225.1,270.9,225.2,270.6,225.2,270.4
					 M227.8,269.6c-0.4,0-0.7,0.3-0.8,0.8c0.1-0.2,0.3-0.3,0.5-0.3c0.4,0,0.8,0.6,0.8,1.3c0,0.7-0.3,1.2-0.8,1.2c-0.1,0-0.1,0-0.2,0
					c0.1,0.1,0.3,0.2,0.5,0.2c0.5,0,1-0.7,1-1.5C228.7,270.3,228.3,269.6,227.8,269.6 M227.9,265.3c-2,0-3.7,2.6-3.7,5.9
					c0,2.1,0.6,3.9,1.6,5l4,0.1c1-1,1.6-2.9,1.6-4.9C231.6,268,230,265.3,227.9,265.3"/>
				
					<path style="clip-path:url(#SVGID_00000015326921967441932250000006016689399375133073_);fill-rule:evenodd;clip-rule:evenodd;fill:#FFFFFF;" d="
					M195.8,272c0.1,0.2,0.2,0.2,0.4,0.1c0.9-0.5-0.3-2.2-0.4-1.4C196,271.3,196,271.7,195.8,272 M197.4,269.4
					c-0.6,0.5-0.5,1.5-0.4,1.6c0.1,0.2,0.5,0.5,0.7,0.7C197.7,271,197.6,270,197.4,269.4 M195.4,267.1l0.3,1.6
					c0.2,1.7,0.4,1.1,0.6-1.6c-0.2-0.1-0.3-0.2-0.5-0.2C195.7,266.9,195.6,267,195.4,267.1 M194.3,271c1,0.1,1-0.5,0.2-1.9
					C194.5,269.5,194.4,270.5,194.3,271 M195.3,275.3l0.1-2c0.1-0.6-0.1-0.9-1-0.7C194.6,273.7,195,274.7,195.3,275.3 M195.8,266.2
					c-1.3,0-2.2,2.4-2.1,5.4c0.1,1.6,0.4,3.1,0.9,4.1l1.9,0l-0.2-2.8c0.1-0.3,0.4-0.5,1.3,0c0,0.6-0.3,2.1-1,2.7l1,0
					c0.4-1,0.6-2.4,0.6-4C198.2,268.7,197,266.2,195.8,266.2"/>
				
					<path style="clip-path:url(#SVGID_00000015326921967441932250000006016689399375133073_);fill-rule:evenodd;clip-rule:evenodd;fill:#FFFFFF;" d="
					M346.5,308.2c0.9-0.6,1.9-0.9,2.9-0.8c-0.9-2.3-3.5-2.1-4,0.1C345.4,308.1,345.8,308.3,346.5,308.2"/>
				
					<path style="clip-path:url(#SVGID_00000015326921967441932250000006016689399375133073_);fill-rule:evenodd;clip-rule:evenodd;fill:#FFFFFF;" d="
					M343.2,302c1-0.5,1.4-0.7,1.4-0.7c-1.6,1.2-2.5,3.1-2.9,5.7c0,0.1,0-0.2-0.1-0.9c-0.1-0.4-0.5-0.6-1.2-0.7
					c0.6-1.8,1.3-3.2,2-4.2C342.5,301.7,342.8,302,343.2,302"/>
				
					<path style="clip-path:url(#SVGID_00000015326921967441932250000006016689399375133073_);fill-rule:evenodd;clip-rule:evenodd;fill:#FFFFFF;" d="
					M350,299.7c0.1-1,0.3-1.5,0.9-1.5c-1.4-0.6-3.1-0.5-5,0.1c0.5,0.1,0.8,0.5,0.8,0.9c0,0.4-0.2,0.7-0.5,0.8
					c-0.5,0.4-0.7,0.5-0.6,0.5c2.1-0.8,3.9-0.8,5.4,0C350.3,300.1,350,299.8,350,299.7"/>
				
					<path style="clip-path:url(#SVGID_00000015326921967441932250000006016689399375133073_);fill-rule:evenodd;clip-rule:evenodd;fill:#FFFFFF;" d="
					M355.8,305.4c0.7-0.2,1.2-0.1,1.5,0.3c-0.6-2.4-1.5-4.1-2.8-5.2c0.1,0.6,0,0.9-0.2,1c-0.3,0.3-0.4,0.4-0.4,0.4
					c-0.2,0.1-0.3,0.2-0.6,0.1c0.3,0.2,0.7,0.3,0.9,0.2C355,303.2,355.5,304.3,355.8,305.4"/>
				
					<path style="clip-path:url(#SVGID_00000015326921967441932250000006016689399375133073_);fill-rule:evenodd;clip-rule:evenodd;fill:#FFFFFF;" d="
					M345.6,302.2c2.8-1,5.2-0.3,7.4,2c-2.5-3.2-5.2-3.9-8.1-2.1C345.1,302.4,345.3,302.4,345.6,302.2"/>
				
					<path style="clip-path:url(#SVGID_00000015326921967441932250000006016689399375133073_);fill-rule:evenodd;clip-rule:evenodd;fill:#FFFFFF;" d="
					M346.3,318.7c0.5,0.4,2,0.7,2.7,0.7c1,0,2.2-0.2,3-0.6c-0.7,0-1.2-0.4-1.3-1c-0.2-1,0-0.9,0.3-1.4c-2.5,0.9-4.6-0.3-5.4-0.7
					c0.8,0.7,1.4,0.7,1.5,1.3C347.2,318.1,346.7,318.4,346.3,318.7 M357.9,309.7c-0.1,0.7-0.3,1.5-0.9,1.6c-0.3,0.1-0.8-0.1-1-0.2
					c-0.3-0.2-0.4-0.3-0.6-0.7c-0.3,1.4-0.6,2.2-1.3,3.4c-0.2,0.4-0.4,0.6-0.6,0.9c0.4-0.2,0.8,0,1.1,0.4c0.8,1.1,0.1,2.1-0.6,2.8
					C355.7,316.4,357.9,313.4,357.9,309.7 M342.9,315.9c-0.2-0.9,0.3-1.5,1.1-1.5c-0.6-0.7-1.5-2-2-3c-0.3-0.6-1.2,1.1-1.5-0.3
					C340.5,312.1,342.2,315.3,342.9,315.9"/>
			</g>
		</g>
	</g>
</g>
</svg>
